<svg width="27" height="22" viewBox="0 0 27 22" fill="none" xmlns="http://www.w3.org/2000/svg">
<rect x="4.68011" width="20.5922" height="22" rx="3.05825" fill="#3B82F6"/>
<rect x="5.90338" y="19.0098" width="10.6796" height="1.63107" rx="0.815534" transform="rotate(-90 5.90338 19.0098)" fill="#3B82F6"/>
<rect x="1.82574" y="19.0098" width="10.6796" height="1.63107" rx="0.815534" transform="rotate(-90 1.82574 19.0098)" fill="white"/>
<path d="M1 12.7725C0.605894 12.7725 0.286408 13.092 0.286408 13.4861C0.286408 13.8802 0.605894 14.1997 1 14.1997L1 12.7725ZM9.2538 13.4861V14.1997H9.76296L9.92858 13.7183L9.2538 13.4861ZM12.3858 4.38123L13.0665 4.16703C12.974 3.87312 12.7034 3.67177 12.3953 3.6677C12.0872 3.66362 11.8113 3.85775 11.7111 4.1491L12.3858 4.38123ZM15.8289 15.3226L15.1482 15.5368L15.777 17.535L16.4988 15.5685L15.8289 15.3226ZM18.3583 8.43149L19.0077 8.13572C18.8877 7.87232 18.6205 7.70747 18.3313 7.71841C18.0421 7.72935 17.7881 7.9139 17.6884 8.18561L18.3583 8.43149ZM21.649 15.6568L20.9996 15.9525L21.1899 16.3704H21.649V15.6568ZM26.1892 16.3704C26.5833 16.3704 26.9028 16.0509 26.9028 15.6568C26.9028 15.2627 26.5833 14.9432 26.1892 14.9432V16.3704ZM1 14.1997H9.2538V12.7725H1L1 14.1997ZM9.92858 13.7183L13.0606 4.61335L11.7111 4.1491L8.57901 13.254L9.92858 13.7183ZM11.7052 4.59542L15.1482 15.5368L16.5096 15.1084L13.0665 4.16703L11.7052 4.59542ZM16.4988 15.5685L19.0282 8.67738L17.6884 8.18561L15.159 15.0767L16.4988 15.5685ZM17.7089 8.72726L20.9996 15.9525L22.2984 15.361L19.0077 8.13572L17.7089 8.72726ZM21.649 16.3704H26.1892V14.9432H21.649V16.3704Z" fill="white"/>
<path d="M1.92767 14.1999H2.64126V12.7727H1.92767V14.1999ZM25.9859 14.9434H25.2723V16.3705H25.9859V14.9434ZM26.0879 16.3705C26.482 16.3705 26.8015 16.0511 26.8015 15.657C26.8015 15.2628 26.482 14.9434 26.0879 14.9434V16.3705ZM1.01019 12.7727C0.616087 12.7727 0.296601 13.0922 0.296601 13.4863C0.296601 13.8804 0.616087 14.1999 1.01019 14.1999L1.01019 12.7727ZM25.9859 16.3705H26.0879V14.9434H25.9859V16.3705ZM1.92767 12.7727H1.01019L1.01019 14.1999H1.92767V12.7727Z" fill="#3B82F6"/>
<path d="M2.64124 13.4863H6.71901" stroke="#FFD565" stroke-width="1.42718" stroke-linecap="round" stroke-linejoin="round"/>
<path d="M4.68011 15.5923V11.3203" stroke="#FFD565" stroke-width="1.42718" stroke-linecap="round" stroke-linejoin="round"/>
</svg>
