<svg width="22" height="22" viewBox="0 0 22 22" fill="none" xmlns="http://www.w3.org/2000/svg">
<path d="M12.1137 17.6614C12.1335 15.6421 11.6215 14.0001 10.9703 13.9937C10.3191 13.9873 9.77515 15.6191 9.75544 17.6384C9.73568 19.6577 10.2476 21.2998 10.8988 21.3061C11.5501 21.3125 12.094 19.6807 12.1137 17.6614Z" fill="#640EF1"/>
<path d="M8.33661 17.2027C9.44501 15.5147 9.90222 13.8565 9.35785 13.4991C8.81344 13.1416 7.47359 14.2202 6.36523 15.9083C5.25683 17.5963 4.79962 19.2544 5.34399 19.6119C5.8884 19.9694 7.2282 18.8908 8.33661 17.2027Z" fill="#640EF1"/>
<path d="M5.40278 14.7809C7.24788 13.9602 8.52903 12.8125 8.26432 12.2174C7.99966 11.6224 6.28938 11.8053 4.44429 12.626C2.59921 13.4467 1.31805 14.5944 1.58273 15.1895C1.84741 15.7845 3.5577 15.6016 5.40278 14.7809Z" fill="#640EF1"/>
<path d="M8.04299 10.5488C8.14208 9.90508 6.60441 9.13424 4.60857 8.82704C2.61268 8.51983 0.914392 8.79263 0.815322 9.4363C0.716251 10.08 2.25391 10.8508 4.24979 11.158C6.24564 11.4652 7.94395 11.1924 8.04299 10.5488Z" fill="#640EF1"/>
<path d="M8.75949 9.01534C9.19078 8.52738 8.31377 7.04771 6.80066 5.71042C5.28754 4.37313 3.71129 3.68464 3.28001 4.17262C2.84873 4.66062 3.72574 6.1403 5.23888 7.47759C6.75199 8.81488 8.32825 9.50335 8.75949 9.01534Z" fill="#640EF1"/>
<path d="M10.1867 8.11923C10.8134 7.94191 10.8756 6.22297 10.3258 4.2799C9.77598 2.33682 8.82223 0.905395 8.19559 1.08272C7.56894 1.26004 7.50668 2.97896 8.0565 4.92206C8.60633 6.8651 9.56007 8.29655 10.1867 8.11923Z" fill="#640EF1"/>
<path d="M14.0614 4.98254C14.6494 3.05068 14.6211 1.33086 13.9981 1.14122C13.375 0.951567 12.3933 2.3639 11.8052 4.29576C11.2172 6.22761 11.2455 7.94744 11.8686 8.13708C12.4916 8.32672 13.4734 6.91441 14.0614 4.98254Z" fill="#640EF1"/>
<path d="M16.8299 7.59291C18.3689 6.28545 19.2747 4.8232 18.853 4.32689C18.4314 3.83057 16.842 4.48814 15.303 5.79556C13.764 7.10301 12.8583 8.56527 13.2799 9.06159C13.7016 9.55791 15.291 8.90037 16.8299 7.59291Z" fill="#640EF1"/>
<path d="M17.7458 11.2869C19.7474 11.0191 21.2999 10.2788 21.2136 9.63324C21.1272 8.98776 19.4346 8.68157 17.4331 8.94931C15.4316 9.21709 13.879 9.95743 13.9653 10.603C14.0517 11.2484 15.7443 11.5547 17.7458 11.2869Z" fill="#640EF1"/>
<path d="M20.328 15.374C20.6043 14.7843 19.3461 13.6116 17.5175 12.7547C15.689 11.8977 13.9826 11.6811 13.7063 12.2708C13.4299 12.8605 14.6882 14.0332 16.5167 14.8902C18.3452 15.7471 20.0516 15.9637 20.328 15.374Z" fill="#640EF1"/>
<path d="M16.4819 19.7252C17.0333 19.3786 16.6088 17.7117 15.534 16.0021C14.4591 14.2926 13.1408 13.1878 12.5894 13.5344C12.0381 13.8811 12.4625 15.548 13.5374 17.2575C14.6123 18.967 15.9306 20.0719 16.4819 19.7252Z" fill="#640EF1"/>
</svg>
