<svg width="55" height="22" viewBox="0 0 55 22" fill="none" xmlns="http://www.w3.org/2000/svg">
<path d="M0.756881 18.5061C0.407092 17.6676 0 12.13 0 6.62693C0 4.7337 0.412054 2.79428 0.756881 1.26965C1.10171 -0.254984 6.11306 -0.186143 8.08062 0.337961C10.0482 0.862066 10.6461 2.6807 10.8486 3.36599C11.3411 5.03217 11.414 4.105 12.6147 3.36599C14.1284 2.43429 14.6078 3.83477 15.3899 3.36599C16.1721 2.8972 17.8124 1.26965 20.4358 1.26965C23.4964 1.26965 25.6274 2.46003 25.4817 3.15883C26.3561 2.46003 26.9665 1.5341 28.5405 2.37267C30.5081 3.42088 30.1611 3.29885 31.6914 2.77475C33.2217 2.25064 34.8626 1.58651 36.6115 2.37267C38.3605 3.15883 37.6237 3.68294 39.3726 3.15883C40.3211 2.8746 40.6034 2.09019 42.1337 1.82814C43.358 1.61849 44.4701 2.6143 45.9568 3.15883C47.2312 2.6143 48.7179 1.82814 50.7112 1.82814C52.7044 1.82814 55.3906 5.77639 54.8649 7.35167C54.4277 8.66193 53.9904 9.71014 54.6463 10.2342C55.3021 10.7583 54.8907 12.6158 54.6463 13.8975C54.2402 16.0274 52.6787 19.4061 50.7112 19.4061C48.7436 19.4061 46.5183 19.144 45.6439 19.144C44.7694 19.144 43.3996 19.6188 42.5251 20.6671C41.6507 21.7153 41.212 22 38.914 22C37.1461 22 37.545 19.9302 36.4519 19.9302C35.5774 19.9302 35.2477 19.2314 34.8104 18.882C33.8256 19.4061 33.9213 20.3494 33.2217 19.9302C32.5221 19.5109 31.91 19.2314 31.6914 19.144C31.4728 19.4061 30.8169 19.9302 29.9424 19.9302C29.068 19.9302 28.2664 19.2314 27.9749 18.882C27.6105 19.4934 26.532 20.6639 25.1328 20.4543C23.7337 20.2446 22.3637 19.3187 21.8536 18.882C21.8536 18.882 20.7605 19.9302 19.2301 19.9302C17.6998 19.9302 17.4812 19.4061 17.4812 19.4061C17.1897 19.6681 16.4318 20.1398 15.7323 19.9302L13.9833 19.4061C13.9833 19.4061 13.9833 20.1922 12.8902 20.1922C11.7971 20.1922 11.6878 19.6681 11.1413 19.6681C10.4854 19.6681 9.17371 18.882 8.08062 19.6681C5.16571 19.6681 1.10667 19.3447 0.756881 18.5061Z" fill="#FF9E69"/>
<mask id="path-2-outside-1_210_15968" maskUnits="userSpaceOnUse" x="2.55847" y="2.97046" width="51" height="17" fill="black">
<rect fill="white" x="2.55847" y="2.97046" width="51" height="17"/>
<path d="M4.48247 14.9705V5.37716H6.61582V14.9705H4.48247ZM6.12665 14.9705V13.0953H10.8689V14.9705H6.12665ZM14.5613 15.1063C13.9544 15.1063 13.4109 14.9569 12.9307 14.6579C12.4597 14.359 12.0837 13.9513 11.8029 13.435C11.5312 12.9186 11.3953 12.3298 11.3953 11.6685C11.3953 11.0072 11.5312 10.4184 11.8029 9.90205C12.0837 9.38569 12.4597 8.97805 12.9307 8.67911C13.4109 8.38016 13.9544 8.23069 14.5613 8.23069C15.0052 8.23069 15.4038 8.31675 15.7571 8.48887C16.1195 8.66099 16.4139 8.90105 16.6403 9.20905C16.8668 9.50799 16.9936 9.85222 17.0208 10.2418V13.0953C16.9936 13.4848 16.8668 13.8336 16.6403 14.1416C16.4229 14.4405 16.133 14.676 15.7707 14.8482C15.4083 15.0203 15.0052 15.1063 14.5613 15.1063ZM14.9826 13.2312C15.4265 13.2312 15.7843 13.0862 16.056 12.7963C16.3278 12.4974 16.4637 12.1215 16.4637 11.6685C16.4637 11.3605 16.4003 11.0888 16.2735 10.8532C16.1557 10.6177 15.9836 10.4365 15.7571 10.3097C15.5397 10.1738 15.286 10.1059 14.9962 10.1059C14.7063 10.1059 14.4481 10.1738 14.2216 10.3097C14.0042 10.4365 13.8276 10.6177 13.6917 10.8532C13.5649 11.0888 13.5015 11.3605 13.5015 11.6685C13.5015 11.9675 13.5649 12.2347 13.6917 12.4702C13.8185 12.7058 13.9952 12.8915 14.2216 13.0273C14.4481 13.1632 14.7017 13.2312 14.9826 13.2312ZM16.3822 14.9705V13.1904L16.6947 11.587L16.3822 9.98358V8.36658H18.4204V14.9705H16.3822ZM20.8218 14.9705V5.63534H22.9008V14.9705H20.8218ZM19.3271 10.133V8.36658H24.3955V10.133H19.3271ZM28.44 15.1199C27.7244 15.1199 27.0857 14.975 26.5241 14.6851C25.9715 14.3862 25.5367 13.974 25.2196 13.4486C24.9025 12.9232 24.744 12.3298 24.744 11.6685C24.744 11.0072 24.898 10.4184 25.206 9.90205C25.5231 9.37663 25.9488 8.96446 26.4833 8.66552C27.0178 8.36658 27.6202 8.21711 28.2905 8.21711C28.9428 8.21711 29.518 8.35752 30.0163 8.63834C30.5145 8.91916 30.904 9.30869 31.1848 9.80693C31.4747 10.3052 31.6197 10.8759 31.6197 11.519C31.6197 11.6368 31.6106 11.7636 31.5925 11.8995C31.5834 12.0263 31.5608 12.1758 31.5245 12.3479L25.8311 12.3615V10.9348L30.6413 10.9212L29.7445 11.519C29.7354 11.1386 29.6765 10.826 29.5678 10.5815C29.4591 10.3278 29.2961 10.1376 29.0787 10.0108C28.8703 9.87487 28.6121 9.80693 28.3041 9.80693C27.978 9.80693 27.6927 9.88393 27.4481 10.0379C27.2125 10.1829 27.0268 10.3912 26.891 10.663C26.7641 10.9348 26.7007 11.2654 26.7007 11.6549C26.7007 12.0445 26.7687 12.3796 26.9045 12.6605C27.0495 12.9322 27.2488 13.1451 27.5024 13.2991C27.7651 13.444 28.0731 13.5165 28.4264 13.5165C28.7525 13.5165 29.047 13.4622 29.3097 13.3535C29.5724 13.2357 29.8034 13.0636 30.0027 12.8371L31.1441 13.9785C30.818 14.359 30.4239 14.6443 29.9619 14.8346C29.4999 15.0248 28.9926 15.1199 28.44 15.1199ZM35.0283 15.1335C34.6388 15.1335 34.2538 15.0837 33.8733 14.984C33.5019 14.8844 33.1531 14.744 32.827 14.5628C32.5099 14.3726 32.2382 14.1552 32.0117 13.9106L33.1939 12.7148C33.4113 12.9503 33.6695 13.136 33.9684 13.2719C34.2674 13.3988 34.5935 13.4622 34.9468 13.4622C35.1914 13.4622 35.3771 13.4259 35.5039 13.3535C35.6398 13.281 35.7077 13.1813 35.7077 13.0545C35.7077 12.8915 35.6262 12.7692 35.4631 12.6876C35.3091 12.597 35.1098 12.52 34.8652 12.4566C34.6206 12.3842 34.3625 12.3072 34.0907 12.2256C33.8189 12.1441 33.5608 12.0309 33.3162 11.8859C33.0716 11.741 32.8723 11.5417 32.7183 11.288C32.5643 11.0253 32.4873 10.6947 32.4873 10.2961C32.4873 9.87034 32.596 9.50346 32.8134 9.19546C33.0308 8.8784 33.3388 8.62928 33.7374 8.44811C34.136 8.26693 34.6025 8.17634 35.137 8.17634C35.6986 8.17634 36.215 8.27599 36.6861 8.47528C37.1662 8.66552 37.5557 8.95087 37.8546 9.33134L36.6725 10.5271C36.4641 10.2825 36.2286 10.1104 35.9659 10.0108C35.7122 9.91111 35.4631 9.86128 35.2185 9.86128C34.983 9.86128 34.8064 9.89752 34.6886 9.96999C34.5708 10.0334 34.5119 10.1285 34.5119 10.2553C34.5119 10.3912 34.5889 10.4999 34.7429 10.5815C34.8969 10.663 35.0962 10.7355 35.3408 10.7989C35.5854 10.8623 35.8436 10.9393 36.1154 11.0299C36.3871 11.1205 36.6453 11.2428 36.8899 11.3968C37.1345 11.5508 37.3338 11.7591 37.4878 12.0218C37.6418 12.2755 37.7188 12.6106 37.7188 13.0273C37.7188 13.6705 37.4742 14.1823 36.985 14.5628C36.5049 14.9433 35.8526 15.1335 35.0283 15.1335ZM40.8849 14.9976L38.1673 8.36658H40.4093L42.135 13.6252H41.3062L43.0726 8.36658H45.3147L42.4883 14.9976H40.8849ZM39.1864 17.756L41.1703 13.4758L42.4883 14.9976L41.3198 17.756H39.1864ZM48.2715 15.1335C47.882 15.1335 47.497 15.0837 47.1165 14.984C46.7451 14.8844 46.3963 14.744 46.0702 14.5628C45.7532 14.3726 45.4814 14.1552 45.2549 13.9106L46.4371 12.7148C46.6545 12.9503 46.9127 13.136 47.2116 13.2719C47.5106 13.3988 47.8367 13.4622 48.19 13.4622C48.4346 13.4622 48.6203 13.4259 48.7471 13.3535C48.883 13.281 48.9509 13.1813 48.9509 13.0545C48.9509 12.8915 48.8694 12.7692 48.7063 12.6876C48.5523 12.597 48.353 12.52 48.1085 12.4566C47.8639 12.3842 47.6057 12.3072 47.3339 12.2256C47.0622 12.1441 46.804 12.0309 46.5594 11.8859C46.3148 11.741 46.1155 11.5417 45.9615 11.288C45.8075 11.0253 45.7305 10.6947 45.7305 10.2961C45.7305 9.87034 45.8392 9.50346 46.0566 9.19546C46.274 8.8784 46.582 8.62928 46.9806 8.44811C47.3792 8.26693 47.8458 8.17634 48.3802 8.17634C48.9419 8.17634 49.4582 8.27599 49.9293 8.47528C50.4094 8.66552 50.7989 8.95087 51.0979 9.33134L49.9157 10.5271C49.7073 10.2825 49.4718 10.1104 49.2091 10.0108C48.9555 9.91111 48.7063 9.86128 48.4618 9.86128C48.2262 9.86128 48.0496 9.89752 47.9318 9.96999C47.814 10.0334 47.7552 10.1285 47.7552 10.2553C47.7552 10.3912 47.8322 10.4999 47.9862 10.5815C48.1402 10.663 48.3395 10.7355 48.584 10.7989C48.8286 10.8623 49.0868 10.9393 49.3586 11.0299C49.6303 11.1205 49.8885 11.2428 50.1331 11.3968C50.3777 11.5508 50.577 11.7591 50.731 12.0218C50.885 12.2755 50.962 12.6106 50.962 13.0273C50.962 13.6705 50.7174 14.1823 50.2282 14.5628C49.7481 14.9433 49.0959 15.1335 48.2715 15.1335Z"/>
</mask>
<path d="M4.48247 14.9705V5.37716H6.61582V14.9705H4.48247ZM6.12665 14.9705V13.0953H10.8689V14.9705H6.12665ZM14.5613 15.1063C13.9544 15.1063 13.4109 14.9569 12.9307 14.6579C12.4597 14.359 12.0837 13.9513 11.8029 13.435C11.5312 12.9186 11.3953 12.3298 11.3953 11.6685C11.3953 11.0072 11.5312 10.4184 11.8029 9.90205C12.0837 9.38569 12.4597 8.97805 12.9307 8.67911C13.4109 8.38016 13.9544 8.23069 14.5613 8.23069C15.0052 8.23069 15.4038 8.31675 15.7571 8.48887C16.1195 8.66099 16.4139 8.90105 16.6403 9.20905C16.8668 9.50799 16.9936 9.85222 17.0208 10.2418V13.0953C16.9936 13.4848 16.8668 13.8336 16.6403 14.1416C16.4229 14.4405 16.133 14.676 15.7707 14.8482C15.4083 15.0203 15.0052 15.1063 14.5613 15.1063ZM14.9826 13.2312C15.4265 13.2312 15.7843 13.0862 16.056 12.7963C16.3278 12.4974 16.4637 12.1215 16.4637 11.6685C16.4637 11.3605 16.4003 11.0888 16.2735 10.8532C16.1557 10.6177 15.9836 10.4365 15.7571 10.3097C15.5397 10.1738 15.286 10.1059 14.9962 10.1059C14.7063 10.1059 14.4481 10.1738 14.2216 10.3097C14.0042 10.4365 13.8276 10.6177 13.6917 10.8532C13.5649 11.0888 13.5015 11.3605 13.5015 11.6685C13.5015 11.9675 13.5649 12.2347 13.6917 12.4702C13.8185 12.7058 13.9952 12.8915 14.2216 13.0273C14.4481 13.1632 14.7017 13.2312 14.9826 13.2312ZM16.3822 14.9705V13.1904L16.6947 11.587L16.3822 9.98358V8.36658H18.4204V14.9705H16.3822ZM20.8218 14.9705V5.63534H22.9008V14.9705H20.8218ZM19.3271 10.133V8.36658H24.3955V10.133H19.3271ZM28.44 15.1199C27.7244 15.1199 27.0857 14.975 26.5241 14.6851C25.9715 14.3862 25.5367 13.974 25.2196 13.4486C24.9025 12.9232 24.744 12.3298 24.744 11.6685C24.744 11.0072 24.898 10.4184 25.206 9.90205C25.5231 9.37663 25.9488 8.96446 26.4833 8.66552C27.0178 8.36658 27.6202 8.21711 28.2905 8.21711C28.9428 8.21711 29.518 8.35752 30.0163 8.63834C30.5145 8.91916 30.904 9.30869 31.1848 9.80693C31.4747 10.3052 31.6197 10.8759 31.6197 11.519C31.6197 11.6368 31.6106 11.7636 31.5925 11.8995C31.5834 12.0263 31.5608 12.1758 31.5245 12.3479L25.8311 12.3615V10.9348L30.6413 10.9212L29.7445 11.519C29.7354 11.1386 29.6765 10.826 29.5678 10.5815C29.4591 10.3278 29.2961 10.1376 29.0787 10.0108C28.8703 9.87487 28.6121 9.80693 28.3041 9.80693C27.978 9.80693 27.6927 9.88393 27.4481 10.0379C27.2125 10.1829 27.0268 10.3912 26.891 10.663C26.7641 10.9348 26.7007 11.2654 26.7007 11.6549C26.7007 12.0445 26.7687 12.3796 26.9045 12.6605C27.0495 12.9322 27.2488 13.1451 27.5024 13.2991C27.7651 13.444 28.0731 13.5165 28.4264 13.5165C28.7525 13.5165 29.047 13.4622 29.3097 13.3535C29.5724 13.2357 29.8034 13.0636 30.0027 12.8371L31.1441 13.9785C30.818 14.359 30.4239 14.6443 29.9619 14.8346C29.4999 15.0248 28.9926 15.1199 28.44 15.1199ZM35.0283 15.1335C34.6388 15.1335 34.2538 15.0837 33.8733 14.984C33.5019 14.8844 33.1531 14.744 32.827 14.5628C32.5099 14.3726 32.2382 14.1552 32.0117 13.9106L33.1939 12.7148C33.4113 12.9503 33.6695 13.136 33.9684 13.2719C34.2674 13.3988 34.5935 13.4622 34.9468 13.4622C35.1914 13.4622 35.3771 13.4259 35.5039 13.3535C35.6398 13.281 35.7077 13.1813 35.7077 13.0545C35.7077 12.8915 35.6262 12.7692 35.4631 12.6876C35.3091 12.597 35.1098 12.52 34.8652 12.4566C34.6206 12.3842 34.3625 12.3072 34.0907 12.2256C33.8189 12.1441 33.5608 12.0309 33.3162 11.8859C33.0716 11.741 32.8723 11.5417 32.7183 11.288C32.5643 11.0253 32.4873 10.6947 32.4873 10.2961C32.4873 9.87034 32.596 9.50346 32.8134 9.19546C33.0308 8.8784 33.3388 8.62928 33.7374 8.44811C34.136 8.26693 34.6025 8.17634 35.137 8.17634C35.6986 8.17634 36.215 8.27599 36.6861 8.47528C37.1662 8.66552 37.5557 8.95087 37.8546 9.33134L36.6725 10.5271C36.4641 10.2825 36.2286 10.1104 35.9659 10.0108C35.7122 9.91111 35.4631 9.86128 35.2185 9.86128C34.983 9.86128 34.8064 9.89752 34.6886 9.96999C34.5708 10.0334 34.5119 10.1285 34.5119 10.2553C34.5119 10.3912 34.5889 10.4999 34.7429 10.5815C34.8969 10.663 35.0962 10.7355 35.3408 10.7989C35.5854 10.8623 35.8436 10.9393 36.1154 11.0299C36.3871 11.1205 36.6453 11.2428 36.8899 11.3968C37.1345 11.5508 37.3338 11.7591 37.4878 12.0218C37.6418 12.2755 37.7188 12.6106 37.7188 13.0273C37.7188 13.6705 37.4742 14.1823 36.985 14.5628C36.5049 14.9433 35.8526 15.1335 35.0283 15.1335ZM40.8849 14.9976L38.1673 8.36658H40.4093L42.135 13.6252H41.3062L43.0726 8.36658H45.3147L42.4883 14.9976H40.8849ZM39.1864 17.756L41.1703 13.4758L42.4883 14.9976L41.3198 17.756H39.1864ZM48.2715 15.1335C47.882 15.1335 47.497 15.0837 47.1165 14.984C46.7451 14.8844 46.3963 14.744 46.0702 14.5628C45.7532 14.3726 45.4814 14.1552 45.2549 13.9106L46.4371 12.7148C46.6545 12.9503 46.9127 13.136 47.2116 13.2719C47.5106 13.3988 47.8367 13.4622 48.19 13.4622C48.4346 13.4622 48.6203 13.4259 48.7471 13.3535C48.883 13.281 48.9509 13.1813 48.9509 13.0545C48.9509 12.8915 48.8694 12.7692 48.7063 12.6876C48.5523 12.597 48.353 12.52 48.1085 12.4566C47.8639 12.3842 47.6057 12.3072 47.3339 12.2256C47.0622 12.1441 46.804 12.0309 46.5594 11.8859C46.3148 11.741 46.1155 11.5417 45.9615 11.288C45.8075 11.0253 45.7305 10.6947 45.7305 10.2961C45.7305 9.87034 45.8392 9.50346 46.0566 9.19546C46.274 8.8784 46.582 8.62928 46.9806 8.44811C47.3792 8.26693 47.8458 8.17634 48.3802 8.17634C48.9419 8.17634 49.4582 8.27599 49.9293 8.47528C50.4094 8.66552 50.7989 8.95087 51.0979 9.33134L49.9157 10.5271C49.7073 10.2825 49.4718 10.1104 49.2091 10.0108C48.9555 9.91111 48.7063 9.86128 48.4618 9.86128C48.2262 9.86128 48.0496 9.89752 47.9318 9.96999C47.814 10.0334 47.7552 10.1285 47.7552 10.2553C47.7552 10.3912 47.8322 10.4999 47.9862 10.5815C48.1402 10.663 48.3395 10.7355 48.584 10.7989C48.8286 10.8623 49.0868 10.9393 49.3586 11.0299C49.6303 11.1205 49.8885 11.2428 50.1331 11.3968C50.3777 11.5508 50.577 11.7591 50.731 12.0218C50.885 12.2755 50.962 12.6106 50.962 13.0273C50.962 13.6705 50.7174 14.1823 50.2282 14.5628C49.7481 14.9433 49.0959 15.1335 48.2715 15.1335Z" fill="black"/>
<path d="M4.48247 14.9705H2.86482C2.86482 15.8639 3.58907 16.5881 4.48247 16.5881V14.9705ZM4.48247 5.37716V3.75952C3.58907 3.75952 2.86482 4.48376 2.86482 5.37716H4.48247ZM6.61582 5.37716H8.23347C8.23347 4.48376 7.50923 3.75952 6.61582 3.75952V5.37716ZM6.61582 14.9705V16.5881C7.50923 16.5881 8.23347 15.8639 8.23347 14.9705H6.61582ZM6.12665 14.9705H4.509C4.509 15.8639 5.23325 16.5881 6.12665 16.5881V14.9705ZM6.12665 13.0953V11.4776C5.23325 11.4776 4.509 12.2019 4.509 13.0953H6.12665ZM10.8689 13.0953H12.4866C12.4866 12.2019 11.7623 11.4776 10.8689 11.4776V13.0953ZM10.8689 14.9705V16.5881C11.7623 16.5881 12.4866 15.8639 12.4866 14.9705H10.8689ZM6.10012 14.9705V5.37716H2.86482V14.9705H6.10012ZM4.48247 6.99481H6.61582V3.75952H4.48247V6.99481ZM4.99818 5.37716V14.9705H8.23347V5.37716H4.99818ZM6.61582 13.3528H4.48247V16.5881H6.61582V13.3528ZM7.7443 14.9705V13.0953H4.509V14.9705H7.7443ZM6.12665 14.7129H10.8689V11.4776H6.12665V14.7129ZM9.2513 13.0953V14.9705H12.4866V13.0953H9.2513ZM10.8689 13.3528H6.12665V16.5881H10.8689V13.3528ZM12.9307 14.6579L12.0639 16.0238L12.0757 16.0311L12.9307 14.6579ZM11.8029 13.435L10.3714 14.1884C10.3749 14.1949 10.3783 14.2014 10.3818 14.2079L11.8029 13.435ZM11.8029 9.90205L10.3818 9.12918C10.3783 9.13564 10.3749 9.14213 10.3714 9.14863L11.8029 9.90205ZM12.9307 8.67911L12.0757 7.30584L12.064 7.31328L12.9307 8.67911ZM15.7571 8.48887L15.0486 9.94312C15.0534 9.94545 15.0582 9.94777 15.063 9.95005L15.7571 8.48887ZM16.6403 9.20905L15.3371 10.1673C15.3416 10.1735 15.3463 10.1797 15.3509 10.1859L16.6403 9.20905ZM17.0208 10.2418H18.6385C18.6385 10.2042 18.6371 10.1666 18.6345 10.1292L17.0208 10.2418ZM17.0208 13.0953L18.6345 13.2079C18.6371 13.1704 18.6385 13.1328 18.6385 13.0953H17.0208ZM16.6403 14.1416L15.3371 13.1833L15.3321 13.1901L16.6403 14.1416ZM15.7707 14.8482L15.0766 13.387L15.7707 14.8482ZM16.056 12.7963L17.2362 13.9027C17.2418 13.8967 17.2474 13.8906 17.253 13.8845L16.056 12.7963ZM16.2735 10.8532L14.8266 11.5767C14.8339 11.5913 14.8414 11.6058 14.8492 11.6201L16.2735 10.8532ZM15.7571 10.3097L14.8997 11.6815C14.9217 11.6952 14.9441 11.7084 14.9667 11.7211L15.7571 10.3097ZM14.2216 10.3097L15.0367 11.707C15.0425 11.7036 15.0482 11.7002 15.0539 11.6968L14.2216 10.3097ZM13.6917 10.8532L12.2905 10.0448C12.2826 10.0586 12.2749 10.0724 12.2674 10.0863L13.6917 10.8532ZM13.6917 12.4702L12.2674 13.2371V13.2372L13.6917 12.4702ZM14.2216 13.0273L15.0539 11.6402L14.2216 13.0273ZM16.3822 14.9705H14.7645C14.7645 15.8639 15.4888 16.5881 16.3822 16.5881V14.9705ZM16.3822 13.1904L14.7944 12.8809C14.7745 12.9829 14.7645 13.0865 14.7645 13.1904H16.3822ZM16.6947 11.587L18.2825 11.8965C18.3223 11.6921 18.3223 11.4819 18.2825 11.2775L16.6947 11.587ZM16.3822 9.98358H14.7645C14.7645 10.0875 14.7745 10.1911 14.7944 10.2931L16.3822 9.98358ZM16.3822 8.36658V6.74893C15.4888 6.74893 14.7645 7.47317 14.7645 8.36658H16.3822ZM18.4204 8.36658H20.038C20.038 7.47317 19.3138 6.74893 18.4204 6.74893V8.36658ZM18.4204 14.9705V16.5881C19.3138 16.5881 20.038 15.8639 20.038 14.9705H18.4204ZM14.5613 13.4887C14.2336 13.4887 13.9904 13.4122 13.7858 13.2847L12.0757 16.0311C12.8313 16.5016 13.6752 16.724 14.5613 16.724V13.4887ZM13.7975 13.2921C13.5712 13.1485 13.3807 12.9503 13.224 12.6621L10.3818 14.2079C10.7868 14.9524 11.3482 15.5695 12.064 16.0238L13.7975 13.2921ZM13.2344 12.6816C13.1004 12.4269 13.0129 12.1027 13.0129 11.6685H9.77763C9.77763 12.557 9.96193 13.4103 10.3714 14.1884L13.2344 12.6816ZM13.0129 11.6685C13.0129 11.2344 13.1004 10.9101 13.2344 10.6555L10.3714 9.14863C9.96193 9.9267 9.77763 10.7801 9.77763 11.6685H13.0129ZM13.224 10.6749C13.3807 10.3867 13.5712 10.1886 13.7975 10.0449L12.064 7.31328C11.3482 7.76751 10.7868 8.38467 10.3818 9.12918L13.224 10.6749ZM13.7858 10.0523C13.9904 9.92488 14.2336 9.84834 14.5613 9.84834V6.61305C13.6752 6.61305 12.8313 6.83545 12.0757 7.30589L13.7858 10.0523ZM14.5613 9.84834C14.7917 9.84834 14.9431 9.8917 15.0486 9.94312L16.4656 7.03462C15.8645 6.7418 15.2187 6.61305 14.5613 6.61305V9.84834ZM15.063 9.95005C15.1962 10.0133 15.2769 10.0855 15.3371 10.1673L17.9436 8.25077C17.5508 7.71664 17.0427 7.30867 16.4512 7.02769L15.063 9.95005ZM15.3509 10.1859C15.3796 10.2237 15.4008 10.2647 15.4071 10.3543L18.6345 10.1292C18.5864 9.43979 18.354 8.79229 17.9297 8.23222L15.3509 10.1859ZM15.4032 10.2418V13.0953H18.6385V10.2418H15.4032ZM15.4071 12.9827C15.4007 13.0735 15.378 13.1276 15.3371 13.1833L17.9436 15.0999C18.3556 14.5395 18.5865 13.8961 18.6345 13.2079L15.4071 12.9827ZM15.3321 13.1901C15.287 13.2522 15.2162 13.3207 15.0766 13.387L16.4647 16.3093C17.0498 16.0314 17.5589 15.6289 17.9486 15.093L15.3321 13.1901ZM15.0766 13.387C14.9533 13.4455 14.791 13.4887 14.5613 13.4887V16.724C15.2195 16.724 15.8633 16.595 16.4647 16.3093L15.0766 13.387ZM14.9826 14.8488C15.8157 14.8488 16.6211 14.5587 17.2362 13.9027L14.8759 11.69C14.8836 11.6817 14.8972 11.669 14.9168 11.6555C14.9365 11.6419 14.9572 11.631 14.9765 11.6231C15.0172 11.6067 15.0272 11.6135 14.9826 11.6135V14.8488ZM17.253 13.8845C17.8288 13.2511 18.0813 12.4714 18.0813 11.6685H14.846C14.846 11.7009 14.8436 11.7214 14.8419 11.7321C14.8402 11.7425 14.839 11.7445 14.8405 11.7403C14.842 11.7359 14.8451 11.729 14.8497 11.7213C14.8544 11.7137 14.8582 11.7092 14.8591 11.7082L17.253 13.8845ZM18.0813 11.6685C18.0813 11.1337 17.9695 10.591 17.6977 10.0863L14.8492 11.6201C14.8419 11.6067 14.8402 11.5986 14.8408 11.6013C14.8417 11.6049 14.846 11.6256 14.846 11.6685H18.0813ZM17.7203 10.1298C17.4598 9.60883 17.0611 9.18592 16.5475 8.89829L14.9667 11.7211C14.9438 11.7083 14.9133 11.6865 14.8832 11.6548C14.8533 11.6234 14.8354 11.5943 14.8266 11.5767L17.7203 10.1298ZM16.6144 8.93793C16.1075 8.62109 15.5485 8.48822 14.9962 8.48822V11.7235C15.0143 11.7235 15.0083 11.7256 14.9853 11.7194C14.961 11.7129 14.9303 11.7006 14.8997 11.6815L16.6144 8.93793ZM14.9962 8.48822C14.4426 8.48822 13.8914 8.62135 13.3894 8.92257L15.0539 11.6968C15.0346 11.7084 15.014 11.7167 14.9968 11.7212C14.9805 11.7255 14.9783 11.7235 14.9962 11.7235V8.48822ZM13.4065 8.9124C12.9264 9.19247 12.5555 9.58555 12.2905 10.0448L15.0929 11.6616C15.0985 11.6519 15.0967 11.6572 15.0843 11.67C15.0714 11.6832 15.0546 11.6965 15.0367 11.707L13.4065 8.9124ZM12.2674 10.0863C11.9956 10.591 11.8838 11.1337 11.8838 11.6685H15.1191C15.1191 11.6256 15.1235 11.6049 15.1243 11.6013C15.125 11.5986 15.1232 11.6067 15.116 11.6201L12.2674 10.0863ZM11.8838 11.6685C11.8838 12.2032 11.9993 12.7393 12.2674 13.2371L15.116 11.7033C15.1182 11.7075 15.1201 11.7116 15.1214 11.7152C15.1227 11.7187 15.1231 11.7204 15.123 11.7197C15.1227 11.7187 15.1191 11.7032 15.1191 11.6685H11.8838ZM12.2674 13.2372C12.5303 13.7254 12.91 14.1268 13.3894 14.4145L15.0539 11.6402C15.0619 11.645 15.0762 11.6553 15.0914 11.6712C15.1065 11.6871 15.1142 11.6999 15.116 11.7033L12.2674 13.2372ZM13.3894 14.4145C13.8833 14.7108 14.4279 14.8488 14.9826 14.8488V11.6135C14.9737 11.6135 14.9814 11.6126 15.0003 11.6176C15.0197 11.6228 15.0388 11.6312 15.0539 11.6402L13.3894 14.4145ZM17.9998 14.9705V13.1904H14.7645V14.9705H17.9998ZM17.9699 13.4999L18.2825 11.8965L15.1069 11.2775L14.7944 12.8809L17.9699 13.4999ZM18.2825 11.2775L17.9699 9.6741L14.7944 10.2931L15.1069 11.8965L18.2825 11.2775ZM17.9998 9.98358V8.36658H14.7645V9.98358H17.9998ZM16.3822 9.98422H18.4204V6.74893H16.3822V9.98422ZM16.8027 8.36658V14.9705H20.038V8.36658H16.8027ZM18.4204 13.3528H16.3822V16.5881H18.4204V13.3528ZM20.8218 14.9705H19.2041C19.2041 15.8639 19.9284 16.5881 20.8218 16.5881V14.9705ZM20.8218 5.63534V4.01769C19.9284 4.01769 19.2041 4.74194 19.2041 5.63534H20.8218ZM22.9008 5.63534H24.5184C24.5184 4.74194 23.7942 4.01769 22.9008 4.01769V5.63534ZM22.9008 14.9705V16.5881C23.7942 16.5881 24.5184 15.8639 24.5184 14.9705H22.9008ZM19.3271 10.133H17.7094C17.7094 11.0264 18.4337 11.7507 19.3271 11.7507V10.133ZM19.3271 8.36658V6.74893C18.4337 6.74893 17.7094 7.47317 17.7094 8.36658H19.3271ZM24.3955 8.36658H26.0131C26.0131 7.47317 25.2889 6.74893 24.3955 6.74893V8.36658ZM24.3955 10.133V11.7507C25.2889 11.7507 26.0131 11.0264 26.0131 10.133H24.3955ZM22.4394 14.9705V5.63534H19.2041V14.9705H22.4394ZM20.8218 7.25299H22.9008V4.01769H20.8218V7.25299ZM21.2831 5.63534V14.9705H24.5184V5.63534H21.2831ZM22.9008 13.3528H20.8218V16.5881H22.9008V13.3528ZM20.9447 10.133V8.36658H17.7094V10.133H20.9447ZM19.3271 9.98422H24.3955V6.74893H19.3271V9.98422ZM22.7779 8.36658V10.133H26.0131V8.36658H22.7779ZM24.3955 8.5154H19.3271V11.7507H24.3955V8.5154ZM26.5241 14.6851L25.7544 16.1079C25.7636 16.1129 25.7728 16.1178 25.7822 16.1226L26.5241 14.6851ZM25.2196 13.4486L26.6046 12.6128L25.2196 13.4486ZM25.206 9.90205L23.821 9.06625L23.8167 9.07336L25.206 9.90205ZM26.4833 8.66552L25.6937 7.2537L26.4833 8.66552ZM31.1848 9.80693L29.7756 10.6012C29.7792 10.6076 29.7829 10.6141 29.7866 10.6204L31.1848 9.80693ZM31.5925 11.8995L29.989 11.6857C29.9847 11.7185 29.9813 11.7513 29.979 11.7843L31.5925 11.8995ZM31.5245 12.3479L31.5284 13.9656C32.2919 13.9637 32.9502 13.4283 33.1075 12.6812L31.5245 12.3479ZM25.8311 12.3615H24.2134C24.2134 12.7912 24.3844 13.2033 24.6886 13.5067C24.9928 13.8102 25.4052 13.9802 25.8349 13.9792L25.8311 12.3615ZM25.8311 10.9348L25.8265 9.31711C24.9349 9.31963 24.2134 10.0431 24.2134 10.9348H25.8311ZM30.6413 10.9212L31.5386 12.2671C32.1324 11.8712 32.3967 11.133 32.1889 10.4502C31.9811 9.76744 31.3504 9.30151 30.6367 9.30352L30.6413 10.9212ZM29.7445 11.519L28.1273 11.5576C28.1413 12.1471 28.475 12.6822 28.9982 12.9543C29.5214 13.2263 30.1512 13.1921 30.6418 12.865L29.7445 11.519ZM29.5678 10.5815L28.081 11.2187C28.0838 11.2253 28.0867 11.2319 28.0896 11.2384L29.5678 10.5815ZM29.0787 10.0108L28.195 11.3657C28.2175 11.3804 28.2404 11.3945 28.2636 11.408L29.0787 10.0108ZM27.4481 10.0379L28.2959 11.4156C28.3006 11.4127 28.3053 11.4098 28.31 11.4068L27.4481 10.0379ZM26.891 10.663L25.4441 9.93955C25.4376 9.95259 25.4312 9.96571 25.4251 9.97891L26.891 10.663ZM26.9045 12.6605L25.4484 13.365C25.4576 13.3841 25.4672 13.403 25.4772 13.4217L26.9045 12.6605ZM27.5024 13.2991L26.6629 14.6819C26.682 14.6935 26.7014 14.7047 26.721 14.7155L27.5024 13.2991ZM29.3097 13.3535L29.9282 14.8482C29.9427 14.8422 29.9571 14.836 29.9714 14.8296L29.3097 13.3535ZM30.0027 12.8371L31.1465 11.6933C30.8305 11.3772 30.3978 11.206 29.9511 11.2203C29.5044 11.2345 29.0835 11.4329 28.7883 11.7684L30.0027 12.8371ZM31.1441 13.9785L32.3723 15.0313C32.9224 14.3895 32.8856 13.4324 32.2879 12.8347L31.1441 13.9785ZM29.9619 14.8346L29.346 13.3388L29.9619 14.8346ZM28.44 13.5023C27.948 13.5023 27.5695 13.4043 27.266 13.2476L25.7822 16.1226C26.602 16.5457 27.5007 16.7376 28.44 16.7376V13.5023ZM27.2938 13.2623C26.9886 13.0972 26.7689 12.8851 26.6046 12.6128L23.8346 14.2844C24.3044 15.0629 24.9543 15.6751 25.7544 16.1079L27.2938 13.2623ZM26.6046 12.6128C26.4516 12.3592 26.3617 12.0589 26.3617 11.6685H23.1264C23.1264 12.6007 23.3535 13.4872 23.8346 14.2844L26.6046 12.6128ZM26.3617 11.6685C26.3617 11.269 26.4514 10.9719 26.5953 10.7307L23.8167 9.07336C23.3446 9.86488 23.1264 10.7455 23.1264 11.6685H26.3617ZM26.591 10.7378C26.7633 10.4523 26.9841 10.2389 27.273 10.0773L25.6937 7.2537C24.9136 7.69002 24.2828 8.30095 23.821 9.06627L26.591 10.7378ZM27.273 10.0773C27.5437 9.92588 27.8698 9.83475 28.2905 9.83475V6.59946C27.3706 6.59946 26.4918 6.80727 25.6937 7.2537L27.273 10.0773ZM28.2905 9.83475C28.7041 9.83475 28.9985 9.9216 29.222 10.0476L30.8105 7.22912C30.0375 6.79343 29.1814 6.59946 28.2905 6.59946V9.83475ZM29.222 10.0476C29.4629 10.1834 29.6398 10.3602 29.7756 10.6012L32.5941 9.01264C32.1682 8.25714 31.566 7.65495 30.8105 7.22912L29.222 10.0476ZM29.7866 10.6204C29.9167 10.8439 30.002 11.1278 30.002 11.519H33.2373C33.2373 10.624 33.0328 9.76641 32.5831 8.99343L29.7866 10.6204ZM30.002 11.519C30.002 11.5548 29.9992 11.6095 29.989 11.6857L33.1959 12.1133C33.222 11.9177 33.2373 11.7188 33.2373 11.519H30.002ZM29.979 11.7843C29.9767 11.8161 29.968 11.8894 29.9416 12.0147L33.1075 12.6812C33.1536 12.4622 33.1902 12.2366 33.206 12.0148L29.979 11.7843ZM31.5207 10.7303L25.8272 10.7439L25.8349 13.9792L31.5284 13.9656L31.5207 10.7303ZM27.4487 12.3615V10.9348H24.2134V12.3615H27.4487ZM25.8356 12.5524L30.6459 12.5388L30.6367 9.30352L25.8265 9.31711L25.8356 12.5524ZM29.744 9.5752L28.8472 10.1731L30.6418 12.865L31.5386 12.2671L29.744 9.5752ZM31.3617 11.4805C31.3495 10.9699 31.2698 10.4279 31.0461 9.92447L28.0896 11.2384C28.0846 11.2273 28.0934 11.2433 28.1039 11.2988C28.1143 11.3542 28.1245 11.4384 28.1273 11.5576L31.3617 11.4805ZM31.0547 9.94424C30.8232 9.40418 30.4399 8.93204 29.8938 8.61346L28.2636 11.408C28.217 11.3809 28.1723 11.3439 28.1358 11.3013C28.1003 11.2599 28.0848 11.2275 28.081 11.2187L31.0547 9.94424ZM29.9623 8.65579C29.4347 8.31169 28.851 8.18928 28.3041 8.18928V11.4246C28.34 11.4246 28.3411 11.4286 28.3171 11.4223C28.2909 11.4154 28.2462 11.3991 28.195 11.3657L29.9623 8.65579ZM28.3041 8.18928C27.7132 8.18928 27.1209 8.33233 26.5862 8.66902L28.31 11.4068C28.3023 11.4117 28.2939 11.4161 28.2855 11.4198C28.2772 11.4234 28.2707 11.4255 28.267 11.4265C28.2633 11.4275 28.2638 11.427 28.2693 11.4263C28.2749 11.4256 28.2863 11.4246 28.3041 11.4246V8.18928ZM26.6003 8.66025C26.083 8.97857 25.701 9.42567 25.4441 9.93955L28.3378 11.3864C28.3475 11.367 28.3499 11.3679 28.3397 11.3792C28.335 11.3846 28.3284 11.3911 28.3203 11.398C28.3121 11.4048 28.3038 11.4108 28.2959 11.4156L26.6003 8.66025ZM25.4251 9.97891C25.1731 10.5188 25.0831 11.0969 25.0831 11.6549H28.3184C28.3184 11.4339 28.3552 11.3507 28.3568 11.3471L25.4251 9.97891ZM25.0831 11.6549C25.0831 12.2293 25.1832 12.8169 25.4484 13.365L28.3607 11.9559C28.3542 11.9424 28.3184 11.8596 28.3184 11.6549H25.0831ZM25.4772 13.4217C25.7533 13.9395 26.1514 14.3713 26.6629 14.6819L28.342 11.9164C28.3397 11.915 28.3395 11.9147 28.3406 11.9156C28.3416 11.9164 28.3428 11.9175 28.3436 11.9184C28.3445 11.9193 28.344 11.9189 28.3423 11.9165C28.3405 11.914 28.3369 11.9086 28.3319 11.8992L25.4772 13.4217ZM26.721 14.7155C27.2623 15.0141 27.8485 15.1342 28.4264 15.1342V11.8989C28.3603 11.8989 28.3204 11.8921 28.301 11.8875C28.2827 11.8832 28.2792 11.8802 28.2839 11.8827L26.721 14.7155ZM28.4264 15.1342C28.9338 15.1342 29.4427 15.0491 29.9282 14.8482L28.6912 11.8587C28.6513 11.8752 28.5713 11.8989 28.4264 11.8989V15.1342ZM29.9714 14.8296C30.4554 14.6126 30.8723 14.2975 31.2171 13.9058L28.7883 11.7684C28.7344 11.8296 28.6893 11.8588 28.648 11.8773L29.9714 14.8296ZM28.8588 13.981L30.0002 15.1224L32.2879 12.8347L31.1465 11.6933L28.8588 13.981ZM29.9159 12.9258C29.7555 13.1129 29.571 13.2461 29.346 13.3388L30.5778 16.3304C31.2768 16.0426 31.8804 15.6051 32.3723 15.0313L29.9159 12.9258ZM29.346 13.3388C29.0991 13.4404 28.8038 13.5023 28.44 13.5023V16.7376C29.1815 16.7376 29.9007 16.6092 30.5778 16.3304L29.346 13.3388ZM33.8733 14.984L33.4541 16.5465L33.4634 16.5489L33.8733 14.984ZM32.827 14.5628L31.9947 15.9499C32.0101 15.9592 32.0257 15.9682 32.0414 15.9769L32.827 14.5628ZM32.0117 13.9106L30.8613 12.7733C30.2528 13.3889 30.2366 14.3745 30.8247 15.0096L32.0117 13.9106ZM33.1939 12.7148L34.3825 11.6176C34.0828 11.2929 33.6634 11.105 33.2216 11.0974C32.7798 11.0898 32.3542 11.2633 32.0435 11.5775L33.1939 12.7148ZM33.9684 13.2719L33.299 14.7446C33.3115 14.7502 33.324 14.7558 33.3366 14.7611L33.9684 13.2719ZM35.5039 13.3535L34.7426 11.9261C34.7288 11.9335 34.715 11.9411 34.7013 11.9489L35.5039 13.3535ZM35.4631 12.6876L34.6429 14.0819C34.6746 14.1006 34.7068 14.1181 34.7397 14.1345L35.4631 12.6876ZM34.8652 12.4566L34.4057 14.0076C34.4235 14.0129 34.4413 14.0179 34.4593 14.0225L34.8652 12.4566ZM34.0907 12.2256L33.6259 13.7751L34.0907 12.2256ZM33.3162 11.8859L34.1409 10.4943V10.4943L33.3162 11.8859ZM32.7183 11.288L31.3228 12.1061C31.327 12.1133 31.3312 12.1205 31.3356 12.1276L32.7183 11.288ZM32.8134 9.19546L34.135 10.1283C34.1392 10.1223 34.1434 10.1163 34.1475 10.1103L32.8134 9.19546ZM33.7374 8.44811L33.068 6.97545L33.7374 8.44811ZM36.6861 8.47528L36.0558 9.96508C36.0672 9.96991 36.0787 9.97461 36.0902 9.97918L36.6861 8.47528ZM37.8546 9.33134L39.005 10.4686C39.5782 9.88882 39.6304 8.97303 39.1266 8.33192L37.8546 9.33134ZM36.6725 10.5271L35.441 11.5761C35.7348 11.921 36.1598 12.1269 36.6125 12.1436C37.0653 12.1604 37.5043 11.9866 37.8228 11.6644L36.6725 10.5271ZM35.9659 10.0108L35.3744 11.5164C35.3803 11.5187 35.3862 11.521 35.3922 11.5232L35.9659 10.0108ZM34.6886 9.96999L35.4555 11.3943C35.4829 11.3795 35.5099 11.364 35.5364 11.3477L34.6886 9.96999ZM35.3408 10.7989L34.9349 12.3647L35.3408 10.7989ZM36.1154 11.0299L36.6269 9.49524L36.1154 11.0299ZM36.8899 11.3968L37.7518 10.0278L37.7518 10.0278L36.8899 11.3968ZM37.4878 12.0218L36.0922 12.8399C36.0964 12.8471 36.1007 12.8542 36.105 12.8613L37.4878 12.0218ZM36.985 14.5628L35.9919 13.2859C35.988 13.2889 35.9841 13.2919 35.9803 13.295L36.985 14.5628ZM35.0283 13.5159C34.7784 13.5159 34.5311 13.4841 34.2831 13.4192L33.4634 16.5489C33.9764 16.6833 34.4991 16.7512 35.0283 16.7512V13.5159ZM34.2925 13.4217C34.0449 13.3552 33.8196 13.2637 33.6126 13.1487L32.0414 15.9769C32.4867 16.2243 32.9589 16.4136 33.4541 16.5464L34.2925 13.4217ZM33.6593 13.1757C33.4593 13.0557 33.3105 12.9323 33.1987 12.8115L30.8247 15.0096C31.1659 15.378 31.5606 15.6894 31.9947 15.9499L33.6593 13.1757ZM33.1621 15.0479L34.3442 13.8521L32.0435 11.5775L30.8613 12.7733L33.1621 15.0479ZM32.0052 13.812C32.3726 14.21 32.8086 14.5217 33.299 14.7446L34.6378 11.7993C34.5303 11.7504 34.45 11.6907 34.3825 11.6176L32.0052 13.812ZM33.3366 14.7611C33.8524 14.9799 34.3956 15.0798 34.9468 15.0798V11.8445C34.7913 11.8445 34.6823 11.8176 34.6002 11.7828L33.3366 14.7611ZM34.9468 15.0798C35.305 15.0798 35.822 15.0348 36.3065 14.758L34.7013 11.9489C34.8287 11.8762 34.9278 11.8535 34.9597 11.8473C34.9935 11.8407 34.9935 11.8445 34.9468 11.8445V15.0798ZM36.2651 14.7808C36.7933 14.4991 37.3254 13.9175 37.3254 13.0545H34.0901C34.0901 12.8105 34.1613 12.5462 34.3202 12.3131C34.4686 12.0954 34.6421 11.9797 34.7426 11.9261L36.2651 14.7808ZM37.3254 13.0545C37.3254 12.6899 37.2296 12.2987 36.9925 11.9432C36.7622 11.5978 36.46 11.3775 36.1866 11.2408L34.7397 14.1345C34.6293 14.0793 34.4493 13.9609 34.3006 13.7378C34.1451 13.5046 34.0901 13.2561 34.0901 13.0545H37.3254ZM36.2833 11.2933C35.9587 11.1024 35.6062 10.9776 35.2712 10.8908L34.4593 14.0225C34.532 14.0414 34.5827 14.0583 34.6151 14.0709C34.6481 14.0836 34.6547 14.0889 34.6429 14.0819L36.2833 11.2933ZM35.3248 10.9056C35.0821 10.8337 34.8257 10.7573 34.5555 10.6762L33.6259 13.7751C33.8992 13.8571 34.1592 13.9346 34.4057 14.0076L35.3248 10.9056ZM34.5555 10.6762C34.4099 10.6325 34.2726 10.5723 34.1409 10.4943L32.4915 13.2776C32.8489 13.4894 33.2279 13.6557 33.6259 13.7751L34.5555 10.6762ZM34.1409 10.4943C34.1349 10.4908 34.1234 10.4854 34.101 10.4485L31.3356 12.1276C31.6212 12.598 32.0083 12.9912 32.4915 13.2776L34.1409 10.4943ZM34.1138 10.47C34.1436 10.5207 34.1049 10.4937 34.1049 10.2961H30.8696C30.8696 10.8957 30.985 11.53 31.3228 12.1061L34.1138 10.47ZM34.1049 10.2961C34.1049 10.1595 34.1346 10.1289 34.135 10.1283L31.4918 8.26259C31.0574 8.87806 30.8696 9.58121 30.8696 10.2961H34.1049ZM34.1475 10.1103C34.1762 10.0685 34.2384 9.99729 34.4068 9.92076L33.068 6.97545C32.4392 7.26127 31.8855 7.68827 31.4793 8.28063L34.1475 10.1103ZM34.4068 9.92076C34.5541 9.85382 34.7836 9.79399 35.137 9.79399V6.55869C34.4215 6.55869 33.7179 6.68004 33.068 6.97545L34.4068 9.92076ZM35.137 9.79399C35.5035 9.79399 35.8029 9.8581 36.0558 9.96508L37.3164 6.98548C36.6271 6.69388 35.8938 6.55869 35.137 6.55869V9.79399ZM36.0902 9.97918C36.3228 10.0714 36.4724 10.1905 36.5827 10.3308L39.1266 8.33192C38.639 7.71126 38.0095 7.25967 37.2819 6.97139L36.0902 9.97918ZM36.7043 8.19405L35.5221 9.38981L37.8228 11.6644L39.005 10.4686L36.7043 8.19405ZM37.9039 9.47812C37.5445 9.05621 37.0917 8.70767 36.5396 8.49826L35.3922 11.5232C35.3828 11.5197 35.3799 11.5169 35.3851 11.5207C35.3911 11.525 35.4107 11.5404 35.441 11.5761L37.9039 9.47812ZM36.5574 8.50513C36.1368 8.33989 35.6874 8.24364 35.2185 8.24364V11.4789C35.2388 11.4789 35.2877 11.4823 35.3744 11.5164L36.5574 8.50513ZM35.2185 8.24364C34.8696 8.24364 34.3355 8.28787 33.8408 8.5923L35.5364 11.3477C35.3939 11.4354 35.2779 11.4642 35.2345 11.4731C35.1891 11.4824 35.1788 11.4789 35.2185 11.4789V8.24364ZM33.9217 8.5457C33.6622 8.68542 33.386 8.90573 33.1807 9.23743C32.9725 9.57368 32.8943 9.93232 32.8943 10.2553H36.1296C36.1296 10.4515 36.0808 10.6992 35.9315 10.9403C35.7851 11.1769 35.5972 11.318 35.4555 11.3943L33.9217 8.5457ZM32.8943 10.2553C32.8943 11.1659 33.478 11.7421 33.9861 12.0111L35.4998 9.1518C35.5803 9.19439 35.7438 9.29777 35.8897 9.50375C36.049 9.72855 36.1296 9.99549 36.1296 10.2553H32.8943ZM33.9861 12.0111C34.2888 12.1714 34.6178 12.2825 34.9349 12.3647L35.7468 9.23299C35.6651 9.21181 35.6041 9.19248 35.5607 9.1767C35.5167 9.16069 35.4987 9.15119 35.4998 9.1518L33.9861 12.0111ZM34.9349 12.3647C35.1396 12.4178 35.3624 12.484 35.6038 12.5645L36.6269 9.49524C36.3248 9.39454 36.0312 9.30674 35.7468 9.23299L34.9349 12.3647ZM35.6038 12.5645C35.7515 12.6137 35.8921 12.6801 36.028 12.7657L37.7518 10.0278C37.3985 9.80539 37.0228 9.6272 36.6269 9.49524L35.6038 12.5645ZM36.028 12.7657C36.0413 12.774 36.0621 12.7886 36.0922 12.8399L38.8833 11.2037C38.6054 10.7296 38.2276 10.3275 37.7518 10.0278L36.028 12.7657ZM36.105 12.8613C36.0794 12.8191 36.0786 12.8003 36.0844 12.8256C36.0906 12.8525 36.1011 12.9162 36.1011 13.0273H39.3364C39.3364 12.4287 39.2282 11.7714 38.8705 11.1823L36.105 12.8613ZM36.1011 13.0273C36.1011 13.14 36.0809 13.1855 36.0758 13.1961C36.0716 13.2049 36.0567 13.2355 35.9919 13.2859L37.9781 15.8397C38.8784 15.1395 39.3364 14.1477 39.3364 13.0273H36.1011ZM35.9803 13.295C35.871 13.3816 35.6135 13.5159 35.0283 13.5159V16.7512C36.0918 16.7512 37.1387 16.505 37.9897 15.8306L35.9803 13.295ZM40.8849 14.9976L39.3881 15.6111C39.6371 16.2185 40.2285 16.6153 40.8849 16.6153V14.9976ZM38.1673 8.36658V6.74893C37.6281 6.74893 37.1243 7.01758 36.8239 7.46534C36.5235 7.91311 36.466 8.48111 36.6705 8.98003L38.1673 8.36658ZM40.4093 8.36658L41.9463 7.86219C41.7284 7.19798 41.1084 6.74893 40.4093 6.74893V8.36658ZM42.135 13.6252V15.2429C42.6537 15.2429 43.1409 14.9942 43.4451 14.5741C43.7494 14.1541 43.8338 13.6136 43.6721 13.1208L42.135 13.6252ZM41.3062 13.6252L39.7727 13.1101C39.6069 13.6037 39.6888 14.1468 39.9928 14.5696C40.2967 14.9923 40.7855 15.2429 41.3062 15.2429V13.6252ZM43.0726 8.36658V6.74893C42.3777 6.74893 41.7605 7.19274 41.5392 7.85147L43.0726 8.36658ZM45.3147 8.36658L46.8028 9.00085C47.0158 8.50116 46.9638 7.92792 46.6643 7.47474C46.3648 7.02156 45.8579 6.74893 45.3147 6.74893V8.36658ZM42.4883 14.9976V16.6153C43.1366 16.6153 43.7223 16.2283 43.9765 15.6319L42.4883 14.9976ZM39.1864 17.756L37.7187 17.0758C37.4866 17.5767 37.5259 18.1615 37.8231 18.6268C38.1203 19.0921 38.6343 19.3737 39.1864 19.3737V17.756ZM41.1703 13.4758L42.3931 12.4167C42.0337 12.0018 41.4884 11.7974 40.9448 11.8739C40.4012 11.9504 39.9335 12.2974 39.7026 12.7955L41.1703 13.4758ZM42.4883 14.9976L43.9778 15.6287C44.2185 15.0605 44.1151 14.405 43.7111 13.9386L42.4883 14.9976ZM41.3198 17.756V19.3737C41.9693 19.3737 42.5559 18.9852 42.8092 18.3871L41.3198 17.756ZM42.3817 14.3842L39.6641 7.75313L36.6705 8.98003L39.3881 15.6111L42.3817 14.3842ZM38.1673 9.98422H40.4093V6.74893H38.1673V9.98422ZM38.8723 8.87097L40.598 14.1296L43.6721 13.1208L41.9463 7.86219L38.8723 8.87097ZM42.135 12.0076H41.3062V15.2429H42.135V12.0076ZM42.8396 14.1403L44.6061 8.88169L41.5392 7.85147L39.7727 13.1101L42.8396 14.1403ZM43.0726 9.98422H45.3147V6.74893H43.0726V9.98422ZM43.8266 7.7323L41.0002 14.3634L43.9765 15.6319L46.8028 9.00085L43.8266 7.7323ZM42.4883 13.38H40.8849V16.6153H42.4883V13.38ZM40.6541 18.4363L42.6379 14.156L39.7026 12.7955L37.7187 17.0758L40.6541 18.4363ZM39.9475 14.5348L41.2655 16.0567L43.7111 13.9386L42.3931 12.4167L39.9475 14.5348ZM40.9988 14.3666L39.8303 17.125L42.8092 18.3871L43.9778 15.6287L40.9988 14.3666ZM41.3198 16.1384H39.1864V19.3737H41.3198V16.1384ZM47.1165 14.984L46.6973 16.5465L46.7067 16.5489L47.1165 14.984ZM46.0702 14.5628L45.2379 15.9499C45.2534 15.9592 45.2689 15.9682 45.2846 15.9769L46.0702 14.5628ZM45.2549 13.9106L44.1046 12.7733C43.496 13.3889 43.4798 14.3745 44.068 15.0096L45.2549 13.9106ZM46.4371 12.7148L47.6258 11.6176C47.3261 11.2929 46.9066 11.105 46.4648 11.0974C46.023 11.0898 45.5974 11.2633 45.2867 11.5775L46.4371 12.7148ZM47.2116 13.2719L46.5422 14.7446C46.5547 14.7502 46.5673 14.7558 46.5799 14.7611L47.2116 13.2719ZM48.7471 13.3535L47.9859 11.9261C47.972 11.9335 47.9582 11.9411 47.9445 11.9489L48.7471 13.3535ZM48.7063 12.6876L47.8862 14.0819C47.9178 14.1006 47.9501 14.1181 47.9829 14.1345L48.7063 12.6876ZM48.1085 12.4566L47.6489 14.0076C47.6667 14.0129 47.6845 14.0179 47.7025 14.0225L48.1085 12.4566ZM47.3339 12.2256L46.8691 13.7751L47.3339 12.2256ZM46.5594 11.8859L47.3841 10.4943V10.4943L46.5594 11.8859ZM45.9615 11.288L44.566 12.1061C44.5702 12.1133 44.5745 12.1205 44.5788 12.1276L45.9615 11.288ZM46.0566 9.19546L47.3782 10.1283C47.3824 10.1223 47.3866 10.1163 47.3908 10.1103L46.0566 9.19546ZM46.9806 8.44811L46.3112 6.97545L46.9806 8.44811ZM49.9293 8.47528L49.299 9.96508C49.3104 9.96991 49.3219 9.97461 49.3334 9.97918L49.9293 8.47528ZM51.0979 9.33134L52.2482 10.4686C52.8215 9.88882 52.8736 8.97303 52.3699 8.33192L51.0979 9.33134ZM49.9157 10.5271L48.6843 11.5761C48.9781 11.921 49.403 12.1269 49.8558 12.1436C50.3085 12.1604 50.7475 11.9866 51.0661 11.6644L49.9157 10.5271ZM49.2091 10.0108L48.6176 11.5164C48.6235 11.5187 48.6295 11.521 48.6354 11.5232L49.2091 10.0108ZM47.9318 9.96999L48.6987 11.3943C48.7261 11.3795 48.7531 11.364 48.7796 11.3477L47.9318 9.96999ZM48.584 10.7989L48.1781 12.3647L48.584 10.7989ZM49.3586 11.0299L49.8701 9.49524L49.3586 11.0299ZM50.1331 11.3968L50.995 10.0278L50.995 10.0278L50.1331 11.3968ZM50.731 12.0218L49.3354 12.8399C49.3397 12.8471 49.3439 12.8542 49.3482 12.8613L50.731 12.0218ZM50.2282 14.5628L49.2351 13.2859C49.2312 13.2889 49.2274 13.2919 49.2235 13.295L50.2282 14.5628ZM48.2715 13.5159C48.0216 13.5159 47.7743 13.4841 47.5264 13.4192L46.7067 16.5489C47.2196 16.6833 47.7423 16.7512 48.2715 16.7512V13.5159ZM47.5357 13.4217C47.2881 13.3552 47.0628 13.2637 46.8558 13.1487L45.2846 15.9769C45.7299 16.2243 46.2021 16.4136 46.6973 16.5464L47.5357 13.4217ZM46.9025 13.1757C46.7025 13.0557 46.5537 12.9323 46.4419 12.8115L44.068 15.0096C44.4091 15.378 44.8038 15.6894 45.2379 15.9499L46.9025 13.1757ZM46.4053 15.0479L47.5875 13.8521L45.2867 11.5775L44.1046 12.7733L46.4053 15.0479ZM45.2485 13.812C45.6158 14.21 46.0518 14.5217 46.5422 14.7446L47.881 11.7993C47.7735 11.7504 47.6932 11.6907 47.6258 11.6176L45.2485 13.812ZM46.5799 14.7611C47.0956 14.9799 47.6389 15.0798 48.19 15.0798V11.8445C48.0345 11.8445 47.9255 11.8176 47.8434 11.7828L46.5799 14.7611ZM48.19 15.0798C48.5482 15.0798 49.0653 15.0348 49.5497 14.758L47.9445 11.9489C48.0719 11.8762 48.171 11.8535 48.2029 11.8473C48.2367 11.8407 48.2367 11.8445 48.19 11.8445V15.0798ZM49.5084 14.7808C50.0365 14.4991 50.5686 13.9175 50.5686 13.0545H47.3333C47.3333 12.8105 47.4045 12.5462 47.5634 12.3131C47.7119 12.0954 47.8853 11.9797 47.9859 11.9261L49.5084 14.7808ZM50.5686 13.0545C50.5686 12.6899 50.4728 12.2987 50.2357 11.9432C50.0055 11.5978 49.7032 11.3775 49.4298 11.2408L47.9829 14.1345C47.8725 14.0793 47.6926 13.9609 47.5438 13.7378C47.3883 13.5046 47.3333 13.2561 47.3333 13.0545H50.5686ZM49.5265 11.2933C49.2019 11.1024 48.8494 10.9776 48.5144 10.8908L47.7025 14.0225C47.7752 14.0414 47.8259 14.0583 47.8584 14.0709C47.8913 14.0836 47.898 14.0889 47.8862 14.0819L49.5265 11.2933ZM48.568 10.9056C48.3254 10.8337 48.069 10.7573 47.7988 10.6762L46.8691 13.7751C47.1424 13.8571 47.4024 13.9346 47.6489 14.0076L48.568 10.9056ZM47.7988 10.6762C47.6532 10.6325 47.5158 10.5723 47.3841 10.4943L45.7347 13.2776C46.0922 13.4894 46.4712 13.6557 46.8691 13.7751L47.7988 10.6762ZM47.3841 10.4943C47.3781 10.4908 47.3666 10.4854 47.3443 10.4485L44.5788 12.1276C44.8644 12.598 45.2515 12.9912 45.7347 13.2776L47.3841 10.4943ZM47.3571 10.47C47.3868 10.5207 47.3482 10.4937 47.3482 10.2961H44.1129C44.1129 10.8957 44.2283 11.53 44.566 12.1061L47.3571 10.47ZM47.3482 10.2961C47.3482 10.1595 47.3778 10.1289 47.3782 10.1283L44.7351 8.26259C44.3006 8.87806 44.1129 9.58121 44.1129 10.2961H47.3482ZM47.3908 10.1103C47.4194 10.0685 47.4816 9.99729 47.65 9.92076L46.3112 6.97545C45.6824 7.26127 45.1287 7.68827 44.7225 8.28063L47.3908 10.1103ZM47.65 9.92076C47.7973 9.85382 48.0268 9.79399 48.3802 9.79399V6.55869C47.6647 6.55869 46.9612 6.68004 46.3112 6.97545L47.65 9.92076ZM48.3802 9.79399C48.7467 9.79399 49.0461 9.8581 49.299 9.96508L50.5596 6.98548C49.8703 6.69388 49.1371 6.55869 48.3802 6.55869V9.79399ZM49.3334 9.97918C49.5661 10.0714 49.7157 10.1905 49.8259 10.3308L52.3699 8.33192C51.8822 7.71126 51.2527 7.25967 50.5252 6.97139L49.3334 9.97918ZM49.9475 8.19405L48.7653 9.38981L51.0661 11.6644L52.2482 10.4686L49.9475 8.19405ZM51.1471 9.47812C50.7877 9.05621 50.3349 8.70767 49.7828 8.49826L48.6354 11.5232C48.6261 11.5197 48.6232 11.5169 48.6283 11.5207C48.6343 11.525 48.6539 11.5404 48.6843 11.5761L51.1471 9.47812ZM49.8006 8.50513C49.38 8.33989 48.9306 8.24364 48.4618 8.24364V11.4789C48.4821 11.4789 48.5309 11.4823 48.6176 11.5164L49.8006 8.50513ZM48.4618 8.24364C48.1129 8.24364 47.5787 8.28787 47.084 8.5923L48.7796 11.3477C48.6371 11.4354 48.5211 11.4642 48.4777 11.4731C48.4323 11.4824 48.422 11.4789 48.4618 11.4789V8.24364ZM47.1649 8.5457C46.9054 8.68542 46.6292 8.90573 46.4239 9.23743C46.2157 9.57368 46.1375 9.93232 46.1375 10.2553H49.3728C49.3728 10.4515 49.324 10.6992 49.1748 10.9403C49.0283 11.1769 48.8405 11.318 48.6987 11.3943L47.1649 8.5457ZM46.1375 10.2553C46.1375 11.1659 46.7212 11.7421 47.2293 12.0111L48.743 9.1518C48.8235 9.19439 48.987 9.29777 49.133 9.50375C49.2922 9.72855 49.3728 9.99549 49.3728 10.2553H46.1375ZM47.2293 12.0111C47.5321 12.1714 47.861 12.2825 48.1781 12.3647L48.99 9.23299C48.9083 9.21181 48.8473 9.19248 48.804 9.1767C48.7599 9.16069 48.7419 9.15119 48.743 9.1518L47.2293 12.0111ZM48.1781 12.3647C48.3828 12.4178 48.6056 12.484 48.847 12.5645L49.8701 9.49524C49.568 9.39454 49.2745 9.30674 48.99 9.23299L48.1781 12.3647ZM48.847 12.5645C48.9947 12.6137 49.1353 12.6801 49.2712 12.7657L50.995 10.0278C50.6417 9.80539 50.266 9.6272 49.8701 9.49524L48.847 12.5645ZM49.2712 12.7657C49.2845 12.774 49.3054 12.7886 49.3354 12.8399L52.1265 11.2037C51.8486 10.7296 51.4709 10.3275 50.995 10.0278L49.2712 12.7657ZM49.3482 12.8613C49.3226 12.8191 49.3218 12.8003 49.3277 12.8256C49.3338 12.8525 49.3443 12.9162 49.3443 13.0273H52.5796C52.5796 12.4287 52.4714 11.7714 52.1137 11.1823L49.3482 12.8613ZM49.3443 13.0273C49.3443 13.14 49.3241 13.1855 49.319 13.1961C49.3148 13.2049 49.3 13.2355 49.2351 13.2859L51.2214 15.8397C52.1216 15.1395 52.5796 14.1477 52.5796 13.0273H49.3443ZM49.2235 13.295C49.1143 13.3816 48.8568 13.5159 48.2715 13.5159V16.7512C49.335 16.7512 50.3819 16.505 51.2329 15.8306L49.2235 13.295Z" fill="#F5F5F5" mask="url(#path-2-outside-1_210_15968)"/>
</svg>
