<svg width="35" height="22" viewBox="0 0 35 22" fill="none" xmlns="http://www.w3.org/2000/svg">
<g clip-path="url(#clip0_246_4449)">
<path fill-rule="evenodd" clip-rule="evenodd" d="M8.75831 2.50489C5.557 2.63964 3.75645 3.67497 3.20287 4.98058C2.64929 6.28618 3.15613 8.302 5.28309 10.701C6.96207 12.5947 9.47218 14.499 12.5576 16.0786L11.322 18.2432C8.05439 16.5565 5.32074 14.4953 3.42251 12.3543C1.13805 9.7777 -0.233629 6.71132 0.912832 4.00743C2.05929 1.30354 5.21547 0.161253 8.65378 0.0165195C12.1958 -0.132579 16.5418 0.728178 20.889 2.57549C23.892 3.85158 26.5562 5.45429 28.6925 7.19839L27.1985 9.19267C25.2617 7.59733 22.7804 6.0849 19.9169 4.86805C15.8324 3.13237 11.8559 2.3745 8.75831 2.50489ZM30.0203 12.0527C31.5935 14.1034 31.9383 15.8231 31.4466 16.9827C30.8931 18.2883 29.0925 19.3236 25.8912 19.4583C23.6598 19.5523 20.9722 19.1852 18.1168 18.3238L17.1311 20.6263C20.3095 21.6138 23.373 22.0571 25.9957 21.9467C29.4341 21.802 32.5902 20.6597 33.7367 17.9558C34.7295 15.6144 33.834 13.0012 32.0927 10.6695L30.0203 12.0527Z" fill="#6170FF"/>
<path fill-rule="evenodd" clip-rule="evenodd" d="M24.5488 0.0103397V2.50231C25.0119 2.4858 25.4601 2.48674 25.8912 2.50488C29.0925 2.63964 30.8931 3.67497 31.4466 4.98058C32.0002 6.28618 31.4934 8.302 29.3664 10.701C27.3083 13.0223 24.0014 15.3595 19.9169 17.0951C15.8324 18.8308 11.8559 19.5887 8.75831 19.4583C5.557 19.3236 3.75645 18.2882 3.20287 16.9827C2.64929 15.6771 3.15613 13.6612 5.28309 11.2622C7.34117 8.94095 10.6481 6.60376 14.7326 4.86805C15.6975 4.45802 16.6564 4.10257 17.5991 3.8005L16.9439 1.39564C15.8907 1.72947 14.8257 2.12287 13.7605 2.57549C9.41335 4.42282 5.77589 6.9546 3.42251 9.60892C1.13805 12.1855 -0.233629 15.2519 0.912832 17.9558C2.05929 20.6597 5.21547 21.802 8.65378 21.9467C12.1958 22.0958 16.5418 21.235 20.889 19.3877C25.2362 17.5404 28.8736 15.0086 31.227 12.3543C33.5115 9.7777 34.8832 6.71132 33.7367 4.00743C32.5902 1.30354 29.4341 0.161252 25.9957 0.0165196C25.5269 -0.00321641 25.0439 -0.00525836 24.5488 0.0103397Z" fill="#6170FF"/>
<path d="M19.7113 9.19983L14.4338 14.2532" stroke="#6170FF" stroke-width="1.45455"/>
<path d="M14.7358 9.19983L20.0133 14.2532" stroke="#6170FF" stroke-width="1.45455"/>
<path d="M12.6626 11.5819H21.7845" stroke="#6170FF" stroke-width="1.45455"/>
<path d="M17.2236 7.61169V12.3761" stroke="#6170FF" stroke-width="1.45455"/>
</g>
<defs>
<clipPath id="clip0_246_4449">
<rect width="34" height="22" fill="white" transform="translate(0.5)"/>
</clipPath>
</defs>
</svg>
