<svg width="23" height="22" viewBox="0 0 23 22" fill="none" xmlns="http://www.w3.org/2000/svg">
<path d="M11.2294 5.84375C11.2294 8.69147 8.92084 11 6.07312 11H0.91687V5.84375C0.91687 2.99603 3.2254 0.6875 6.07312 0.6875C8.92084 0.6875 11.2294 2.99603 11.2294 5.84375Z" fill="#762BEB"/>
<path d="M11.2294 16.1562C11.2294 13.3085 13.5379 11 16.3856 11H21.5419V16.1562C21.5419 19.004 19.2333 21.3125 16.3856 21.3125C13.5379 21.3125 11.2294 19.004 11.2294 16.1562Z" fill="#762BEB"/>
<path d="M0.91687 16.1562C0.91687 19.004 3.2254 21.3125 6.07312 21.3125H11.2294V16.1562C11.2294 13.3085 8.92084 11 6.07312 11C3.2254 11 0.91687 13.3085 0.91687 16.1562Z" fill="#762BEB"/>
<path d="M21.5419 5.84375C21.5419 2.99603 19.2333 0.6875 16.3856 0.6875H11.2294V5.84375C11.2294 8.69147 13.5379 11 16.3856 11C19.2333 11 21.5419 8.69147 21.5419 5.84375Z" fill="#762BEB"/>
</svg>
