<svg width="34" height="22" viewBox="0 0 34 22" fill="none" xmlns="http://www.w3.org/2000/svg">
<path d="M26.1158 15.3514H33.9998" stroke="#339CFD" stroke-width="2.27174"/>
<path d="M0 6.64819H7.88406" stroke="#339CFD" stroke-width="2.27174"/>
<path d="M0 10.9999H34" stroke="#162D50" stroke-width="2.27174"/>
<path fill-rule="evenodd" clip-rule="evenodd" d="M5.85212 9.84036C5.8106 10.2248 5.78967 10.6118 5.78967 10.9998H16.9998L28.21 10.9998C28.21 9.55531 27.92 8.12493 27.3566 6.79037C26.7933 5.45581 25.9675 4.2432 24.9266 3.22177C23.8856 2.20035 22.6498 1.3901 21.2898 0.837312C19.9297 0.284519 18.472 0 16.9998 0C15.5277 0 14.07 0.284519 12.7099 0.837312C11.3498 1.3901 10.114 2.20035 9.07305 3.22177C8.03209 4.2432 7.20636 5.45581 6.64299 6.79037C6.50219 7.12394 6.37846 7.46349 6.27207 7.80775H17.4358C17.8922 7.80775 18.3537 7.57431 18.7279 7.14597C19.1083 6.71047 19.3094 6.17073 19.3094 5.74168C19.3094 4.8106 18.4362 3.67562 17.1844 3.67562C15.8957 3.67562 15.0594 4.66473 15.0594 5.74168H13.0268C13.0268 3.61297 14.7036 1.64301 17.1844 1.64301C19.7022 1.64301 21.3421 3.83699 21.3421 5.74168C21.3421 6.73052 20.9149 7.73197 20.2587 8.48318C19.5962 9.24155 18.6127 9.84036 17.4358 9.84036H5.85212Z" fill="#162D50"/>
<path fill-rule="evenodd" clip-rule="evenodd" d="M28.1479 12.1594C28.1894 11.7749 28.2103 11.3879 28.2103 10.9998H17.0002L5.79004 10.9998C5.79004 12.4444 6.07999 13.8748 6.64336 15.2094C7.20672 16.544 8.03245 17.7567 9.07341 18.7781C10.1144 19.7996 11.3502 20.6099 12.7102 21.1627C14.0703 21.7155 15.528 22 17.0002 22C18.4723 22 19.93 21.7155 21.2901 21.1627C22.6502 20.6099 23.886 19.7996 24.9269 18.7781C25.9679 17.7567 26.7936 16.544 27.357 15.2094C27.4978 14.8758 27.6216 14.5363 27.7279 14.192H16.5643C16.1078 14.192 15.6463 14.4254 15.2721 14.8538C14.8917 15.2893 14.6906 15.829 14.6906 16.2581C14.6906 17.1893 15.5638 18.3243 16.8156 18.3243C18.1043 18.3243 18.9406 17.3352 18.9406 16.2581H20.9732C20.9732 18.3869 19.2964 20.3569 16.8156 20.3569C14.2978 20.3569 12.658 18.1628 12.658 16.2581C12.658 15.2693 13.0851 14.2678 13.7413 13.5166C14.4037 12.7582 15.3873 12.1594 16.5643 12.1594H28.1479Z" fill="#339CFD"/>
</svg>
