<svg width="19" height="29" viewBox="0 0 19 29" fill="none" xmlns="http://www.w3.org/2000/svg">
<g clip-path="url(#clip0_266_4538)">
<path d="M9.38232 14.5C9.38232 11.8579 11.4612 9.71588 14.0257 9.71588C16.5902 9.71588 18.6692 11.8579 18.6692 14.5C18.6692 17.1422 16.5902 19.2841 14.0257 19.2841C11.4612 19.2841 9.38232 17.1422 9.38232 14.5Z" fill="#1ABCFE"/>
<path d="M0.0952148 24.0682C0.0952148 21.4261 2.17414 19.2841 4.73863 19.2841H9.38205V24.0682C9.38205 26.7105 7.30314 28.8524 4.73863 28.8524C2.17414 28.8524 0.0952148 26.7105 0.0952148 24.0682Z" fill="#0ACF83"/>
<path d="M9.38232 0.147644V9.71587H14.0257C16.5903 9.71587 18.6692 7.57396 18.6692 4.93177C18.6692 2.28957 16.5903 0.147644 14.0257 0.147644H9.38232Z" fill="#FF7262"/>
<path d="M0.0952148 4.93177C0.0952148 7.57397 2.17414 9.71587 4.73863 9.71587H9.38205V0.147644H4.73863C2.17414 0.147644 0.0952148 2.28957 0.0952148 4.93177Z" fill="#F24E1E"/>
<path d="M0.0952148 14.5C0.0952148 17.1422 2.17414 19.2841 4.73863 19.2841H9.38205V9.71588H4.73863C2.17414 9.71588 0.0952148 11.8579 0.0952148 14.5Z" fill="#A259FF"/>
</g>
<defs>
<clipPath id="clip0_266_4538">
<rect width="18.7647" height="29" fill="white"/>
</clipPath>
</defs>
</svg>
