<svg width="28" height="14" viewBox="0 0 28 14" fill="none" xmlns="http://www.w3.org/2000/svg">
<g clip-path="url(#clip0_267_4562)">
<path fill-rule="evenodd" clip-rule="evenodd" d="M1.31366 12.3049C-0.437908 10.5687 -0.43788 7.75381 1.31371 6.01764L6.0711 1.30214C7.55183 -0.165534 9.81024 -0.39252 11.5315 0.621185C12.0639 0.934731 12.0593 1.654 11.6214 2.08805C11.1835 2.5221 10.4687 2.48474 9.87427 2.31243C9.11314 2.09178 8.2572 2.27895 7.6569 2.87397L2.89949 7.58947C2.0237 8.45756 2.02369 9.86501 2.89947 10.7331C3.77526 11.6012 5.19524 11.6012 6.07105 10.7331L15.5858 1.3022C17.3374 -0.433974 20.1772 -0.433981 21.9289 1.30218L26.6863 6.01764C28.438 7.75381 28.438 10.5687 26.6863 12.3049C24.9347 14.0411 22.0948 14.0411 20.3432 12.3049L18.7574 10.7331L16.7752 12.6979C15.2944 14.1655 13.036 14.3925 11.3148 13.3788C10.7823 13.0653 10.787 12.346 11.2249 11.9119C11.6628 11.4779 12.3776 11.5153 12.972 11.6876C13.7331 11.9082 14.5891 11.7211 15.1894 11.126L17.2282 9.10511C18.0728 8.26803 19.442 8.26803 20.2865 9.10511L21.929 10.7331C22.8048 11.6012 24.2247 11.6012 25.1006 10.7331C25.9763 9.86501 25.9763 8.45756 25.1006 7.58947L20.3431 2.87401C19.4673 2.00593 18.0474 2.00594 17.1715 2.87401L7.65686 12.305C5.90522 14.0412 3.06525 14.0411 1.31366 12.3049Z" fill="black"/>
</g>
<defs>
<clipPath id="clip0_267_4562">
<rect width="28" height="14" fill="white"/>
</clipPath>
</defs>
</svg>
