<svg width="28" height="30" viewBox="0 0 28 30" fill="none" xmlns="http://www.w3.org/2000/svg">
<path d="M1.77629 1.28571L17.9499 0.0722123C19.9132 -0.11448 20.4274 0.0255392 21.6895 0.912329L26.8781 4.55283C27.7195 5.15959 28 5.34628 28 6.04638V25.9758C28 27.236 27.5326 27.9828 25.9432 28.0761L7.15192 29.1963C5.93656 29.2429 5.37563 29.1029 4.76795 28.3095L0.981636 23.4088C0.280467 22.4753 0 21.8219 0 21.0285V3.29266C0 2.26585 0.467446 1.37906 1.77629 1.28571Z" fill="white"/>
<path fill-rule="evenodd" clip-rule="evenodd" d="M17.9499 0.0722161L1.77629 1.28572C0.467446 1.37906 0 2.26585 0 3.29266V21.0285C0 21.8219 0.280467 22.522 0.981636 23.4088L4.76795 28.3561C5.37563 29.1496 5.98331 29.3363 7.15192 29.2429L25.9432 28.1228C27.5326 28.0294 28 27.2827 28 26.0225V6.04638C28 5.39296 27.7663 5.20626 26.9716 4.64618C26.9249 4.59951 26.8781 4.59951 26.8314 4.55284L21.6895 0.959006C20.4741 0.025543 19.9599 -0.0678033 17.9499 0.0722161ZM7.57262 5.71967C6.03005 5.81301 5.70284 5.85969 4.81469 5.11292L2.6177 3.38601C2.38397 3.15264 2.47746 2.87261 3.08514 2.82593L18.6511 1.70578C19.9599 1.61243 20.6144 2.03249 21.1285 2.45255L23.793 4.36615C23.9332 4.41282 24.2137 4.73953 23.8397 4.73953L7.7596 5.71967H7.57262ZM5.79633 25.8358V8.89344C5.79633 8.14667 6.03005 7.81996 6.68447 7.77329L25.1486 6.6998C25.7563 6.65313 26.0367 7.02652 26.0367 7.77329V24.5756C26.0367 25.3224 25.8965 25.9291 24.9149 25.9758L7.24541 27.0026C6.26377 27.096 5.79633 26.7226 5.79633 25.8358ZM23.2321 9.82691C23.3255 10.3403 23.2321 10.8537 22.7179 10.9004L21.8765 11.0871V23.5955C21.1285 24.0155 20.4741 24.2022 19.9132 24.2022C19.025 24.2022 18.7913 23.9222 18.0902 23.0821L12.4808 14.3075V22.7554L14.2571 23.1754C14.2571 23.1754 14.2571 24.2022 12.8548 24.2022L8.92821 24.4356C8.83472 24.2022 8.92821 23.6422 9.30217 23.5488L10.3306 23.2688V12.0672L8.92821 11.9272C8.83472 11.4138 9.11519 10.667 9.90985 10.6203L14.1169 10.3403L19.9132 19.2082V11.3671L18.4174 11.1804C18.3239 10.5737 18.7446 10.1069 19.3055 10.0603L23.2321 9.82691Z" fill="black"/>
</svg>
