<svg width="38" height="35" viewBox="0 0 38 35" fill="none" xmlns="http://www.w3.org/2000/svg">
<g clip-path="url(#clip0_266_4503)">
<path d="M18.9999 20.6777C20.9987 20.6777 22.619 19.0606 22.619 17.0659C22.619 15.0711 20.9987 13.454 18.9999 13.454C17.0012 13.454 15.3809 15.0711 15.3809 17.0659C15.3809 19.0606 17.0012 20.6777 18.9999 20.6777Z" fill="#61DAFB"/>
<path d="M19 25.1925C28.9937 25.1925 37.0953 21.5541 37.0953 17.0659C37.0953 12.5777 28.9937 8.93927 19 8.93927C9.0063 8.93927 0.904785 12.5777 0.904785 17.0659C0.904785 21.5541 9.0063 25.1925 19 25.1925Z" stroke="#61DAFB" stroke-width="1.52"/>
<path d="M11.9482 21.1292C16.945 29.7667 24.153 34.9496 28.0477 32.7055C31.9424 30.4614 31.0489 21.6401 26.052 13.0026C21.0552 4.36503 13.8471 -0.817883 9.95247 1.42622C6.0578 3.67032 6.95131 12.4916 11.9482 21.1292Z" stroke="#61DAFB" stroke-width="1.52"/>
<path d="M11.9481 13.0026C6.95129 21.6402 6.05778 30.4615 9.95245 32.7056C13.8471 34.9497 21.0551 29.7668 26.052 21.1292C31.0489 12.4917 31.9424 3.67036 28.0477 1.42626C24.153 -0.817839 16.945 4.36507 11.9481 13.0026Z" stroke="#61DAFB" stroke-width="1.52"/>
</g>
<defs>
<clipPath id="clip0_266_4503">
<rect width="38" height="34.1317" fill="white"/>
</clipPath>
</defs>
</svg>
