<svg width="34" height="21" viewBox="0 0 34 21" fill="none" xmlns="http://www.w3.org/2000/svg">
<g clip-path="url(#clip0_266_4500)">
<path fill-rule="evenodd" clip-rule="evenodd" d="M16.9876 0C12.4625 0 9.64364 2.24593 8.50618 6.7378C10.2124 4.49187 12.1905 3.65273 14.4655 4.1957C15.7513 4.51655 16.6909 5.45441 17.7047 6.46632C19.3615 8.16928 21.2902 10.119 25.4938 10.119C30.0189 10.119 32.8625 7.87311 34 3.38124C32.2938 5.62718 30.3156 6.46632 28.0655 5.89866C26.7796 5.57782 25.84 4.63995 24.8262 3.62805C23.1447 1.94977 21.216 0 16.9876 0ZM8.50618 10.119C3.95636 10.119 1.13745 12.365 0 16.8569C1.70618 14.6109 3.68436 13.7718 5.95927 14.3147C7.24509 14.6356 8.18473 15.5735 9.19855 16.5854C10.8553 18.2883 12.784 20.2381 16.9876 20.2381C21.5127 20.2381 24.3564 17.9922 25.4938 13.5003C23.7876 15.7462 21.8095 16.5854 19.5345 16.0177C18.2487 15.6969 17.3091 14.759 16.2953 13.7471C14.6385 12.0688 12.7098 10.119 8.50618 10.119Z" fill="#38BDF8"/>
</g>
<defs>
<clipPath id="clip0_266_4500">
<rect width="34" height="20.2381" fill="white"/>
</clipPath>
</defs>
</svg>
