<svg width="32" height="32" viewBox="0 0 32 32" fill="none" xmlns="http://www.w3.org/2000/svg">
<g clip-path="url(#clip0_267_4550)">
<mask id="mask0_267_4550" style="mask-type:alpha" maskUnits="userSpaceOnUse" x="0" y="0" width="32" height="32">
<path fill-rule="evenodd" clip-rule="evenodd" d="M22.6918 31.7815C23.1958 31.9778 23.7705 31.9652 24.2792 31.7204L30.8675 28.5503C31.5597 28.2172 32 27.5165 32 26.7479V5.25226C32 4.48362 31.5598 3.78298 30.8675 3.44986L24.2792 0.279602C23.6116 -0.0416415 22.8303 0.037043 22.2443 0.463024C22.1606 0.523875 22.0809 0.591817 22.0061 0.666691L9.39363 12.1733L3.8999 8.00307C3.38848 7.61488 2.67316 7.64669 2.19819 8.07875L0.43617 9.68157C-0.144817 10.21 -0.145482 11.1241 0.43473 11.6534L5.19907 16L0.43473 20.3466C-0.145482 20.876 -0.144817 21.79 0.43617 22.3185L2.19819 23.9213C2.67316 24.3534 3.38848 24.3852 3.8999 23.997L9.39363 19.8268L22.0061 31.3333C22.2056 31.533 22.4399 31.6833 22.6918 31.7815ZM24.0049 8.73565L14.4349 16L24.0049 23.2644V8.73565Z" fill="white"/>
</mask>
<g mask="url(#mask0_267_4550)">
<path d="M30.8676 3.45507L24.2741 0.280459C23.5109 -0.0870017 22.5989 0.0680012 21.9999 0.666951L0.415464 20.3469C-0.165103 20.8762 -0.164436 21.7903 0.416904 22.3188L2.17999 23.9216C2.65526 24.3536 3.37102 24.3854 3.88273 23.9972L29.8754 4.27865C30.7474 3.61712 31.9999 4.23907 31.9999 5.33363V5.25709C31.9999 4.48877 31.5598 3.78838 30.8676 3.45507Z" fill="#0065A9"/>
<g filter="url(#filter0_d_267_4550)">
<path d="M30.8676 28.5452L24.2741 31.7198C23.5109 32.0873 22.5989 31.9323 21.9999 31.3333L0.415464 11.6534C-0.165103 11.124 -0.164436 10.21 0.416904 9.68151L2.17999 8.07869C2.65526 7.64663 3.37102 7.61482 3.88273 8.00301L29.8754 27.7216C30.7474 28.3831 31.9999 27.7612 31.9999 26.6667V26.7432C31.9999 27.5115 31.5598 28.2119 30.8676 28.5452Z" fill="#007ACC"/>
</g>
<g filter="url(#filter1_d_267_4550)">
<path d="M24.2745 31.7204C23.5111 32.0877 22.599 31.9323 22 31.3333C22.738 32.0713 24 31.5486 24 30.5049V1.49506C24 0.451303 22.738 -0.0714158 22 0.666631C22.599 0.0676268 23.5111 -0.087595 24.2745 0.279541L30.8668 3.4498C31.5595 3.78292 32 4.48356 32 5.2522V26.7478C32 27.5165 31.5595 28.2171 30.8668 28.5502L24.2745 31.7204Z" fill="#1F9CF0"/>
</g>
<g style="mix-blend-mode:overlay" opacity="0.25">
<path fill-rule="evenodd" clip-rule="evenodd" d="M22.6723 31.7815C23.1763 31.9778 23.751 31.9652 24.2597 31.7205L30.8479 28.5503C31.5402 28.2172 31.9805 27.5166 31.9805 26.7479V5.25228C31.9805 4.4836 31.5402 3.78296 30.8479 3.44984L24.2597 0.279602C23.5921 -0.0416413 22.8107 0.0370432 22.2248 0.463021C22.1411 0.523876 22.0614 0.591818 21.9865 0.666691L9.37409 12.1733L3.88037 8.00309C3.36897 7.61487 2.65363 7.64671 2.17865 8.07874L0.416639 9.68156C-0.164348 10.2101 -0.165014 11.1241 0.415199 11.6534L5.17953 16L0.415199 20.3466C-0.165014 20.876 -0.164348 21.79 0.416639 22.3185L2.17865 23.9213C2.65363 24.3534 3.36897 24.3852 3.88037 23.997L9.37409 19.8268L21.9865 31.3334C22.1861 31.533 22.4203 31.6833 22.6723 31.7815ZM23.9853 8.73567L14.4154 16L23.9853 23.2644V8.73567Z" fill="url(#paint0_linear_267_4550)"/>
</g>
</g>
</g>
<defs>
<filter id="filter0_d_267_4550" x="-7.42694" y="0.324521" width="46.8344" height="39.0001" filterUnits="userSpaceOnUse" color-interpolation-filters="sRGB">
<feFlood flood-opacity="0" result="BackgroundImageFix"/>
<feColorMatrix in="SourceAlpha" type="matrix" values="0 0 0 0 0 0 0 0 0 0 0 0 0 0 0 0 0 0 127 0" result="hardAlpha"/>
<feOffset/>
<feGaussianBlur stdDeviation="3.70371"/>
<feColorMatrix type="matrix" values="0 0 0 0 0 0 0 0 0 0 0 0 0 0 0 0 0 0 0.25 0"/>
<feBlend mode="overlay" in2="BackgroundImageFix" result="effect1_dropShadow_267_4550"/>
<feBlend mode="normal" in="SourceGraphic" in2="effect1_dropShadow_267_4550" result="shape"/>
</filter>
<filter id="filter1_d_267_4550" x="14.5926" y="-7.32495" width="24.8148" height="46.6499" filterUnits="userSpaceOnUse" color-interpolation-filters="sRGB">
<feFlood flood-opacity="0" result="BackgroundImageFix"/>
<feColorMatrix in="SourceAlpha" type="matrix" values="0 0 0 0 0 0 0 0 0 0 0 0 0 0 0 0 0 0 127 0" result="hardAlpha"/>
<feOffset/>
<feGaussianBlur stdDeviation="3.70371"/>
<feColorMatrix type="matrix" values="0 0 0 0 0 0 0 0 0 0 0 0 0 0 0 0 0 0 0.25 0"/>
<feBlend mode="overlay" in2="BackgroundImageFix" result="effect1_dropShadow_267_4550"/>
<feBlend mode="normal" in="SourceGraphic" in2="effect1_dropShadow_267_4550" result="shape"/>
</filter>
<linearGradient id="paint0_linear_267_4550" x1="15.9805" y1="0.0825193" x2="15.9805" y2="31.9176" gradientUnits="userSpaceOnUse">
<stop stop-color="white"/>
<stop offset="1" stop-color="white" stop-opacity="0"/>
</linearGradient>
<clipPath id="clip0_267_4550">
<rect width="32" height="32" fill="white"/>
</clipPath>
</defs>
</svg>
