<svg width="91" height="22" viewBox="0 0 91 22" fill="none" xmlns="http://www.w3.org/2000/svg">
<path fill-rule="evenodd" clip-rule="evenodd" d="M0 0.0380859H35.8268V5.69006H27.1361C27.1361 3.38206 24.9253 1.92032 22.1809 1.92032H17.9118V5.69006H9.2241C9.2241 3.38206 7.01331 1.92032 4.26888 1.92032H0V0.0380859ZM0 6.53633V11.8307H8.69069C8.69069 14.2156 10.9015 15.6005 12.6549 15.6005H17.912V11.8307H26.6027C26.6027 14.2156 28.8135 15.6005 30.5669 15.6005H35.8268V10.3061H27.1361C27.1361 7.92113 24.9253 6.53633 23.1719 6.53633H17.9148V10.3061H9.2241C9.2241 7.92113 7.01331 6.53633 5.25992 6.53633H0ZM35.8268 20.2165H31.5579C28.8135 20.2165 26.6027 18.7547 26.6027 16.4467H17.915V20.2165H13.6459C10.9015 20.2165 8.69069 18.7547 8.69069 16.4467H0V21.9619H35.8268V20.2165Z" fill="url(#paint0_linear_210_15365)"/>
<path d="M41.6508 17V15.3491H43.2673V6.6131H41.6508V4.9622H47.7557C48.4779 4.9622 49.1085 5.08831 49.6473 5.34054C50.1862 5.58129 50.6046 5.93096 50.9027 6.38954C51.2122 6.83666 51.367 7.36976 51.367 7.98885V8.16082C51.367 8.71112 51.2638 9.16397 51.0575 9.51937C50.8511 9.87477 50.5989 10.1499 50.3008 10.3448C50.0142 10.5397 49.739 10.6773 49.4753 10.7575V11.0327C49.739 11.1015 50.0199 11.2391 50.318 11.4454C50.6275 11.6403 50.8855 11.9155 51.0919 12.2709C51.3097 12.6263 51.4186 13.0906 51.4186 13.6638V13.8358C51.4186 14.5007 51.2638 15.0682 50.9543 15.5383C50.6447 16.0083 50.2148 16.3694 49.6645 16.6217C49.1257 16.8739 48.5009 17 47.7901 17H41.6508ZM45.1417 15.3147H47.5665C48.1856 15.3147 48.6728 15.1657 49.0282 14.8676C49.3836 14.5695 49.5613 14.1568 49.5613 13.6294V13.4746C49.5613 12.9473 49.3836 12.5346 49.0282 12.2365C48.6843 11.9384 48.197 11.7894 47.5665 11.7894H45.1417V15.3147ZM45.1417 10.0869H47.5665C48.1512 10.0869 48.6212 9.94356 48.9766 9.65694C49.332 9.35887 49.5097 8.95761 49.5097 8.45317V8.2812C49.5097 7.77676 49.332 7.38123 48.9766 7.09461C48.6327 6.79653 48.1627 6.6475 47.5665 6.6475H45.1417V10.0869ZM53.5525 17V8.52195H55.3238V17H53.5525ZM54.4467 7.36976C54.1028 7.36976 53.8104 7.26085 53.5697 7.04302C53.3404 6.81373 53.2257 6.52139 53.2257 6.16598C53.2257 5.81058 53.3404 5.52397 53.5697 5.30614C53.8104 5.07685 54.1028 4.9622 54.4467 4.9622C54.8021 4.9622 55.0945 5.07685 55.3238 5.30614C55.553 5.52397 55.6677 5.81058 55.6677 6.16598C55.6677 6.52139 55.553 6.81373 55.3238 7.04302C55.0945 7.26085 54.8021 7.36976 54.4467 7.36976ZM62.0797 17.2408C61.2199 17.2408 60.4517 17.0573 59.7753 16.6905C59.0989 16.3121 58.5658 15.7618 58.176 15.0396C57.7862 14.3173 57.5913 13.4345 57.5913 12.3912V9.57096C57.5913 8.00032 58.0212 6.80227 58.8811 5.97682C59.7409 5.13991 60.9046 4.72145 62.372 4.72145C63.8166 4.72145 64.9286 5.11698 65.7082 5.90803C66.4878 6.68762 66.8776 7.73663 66.8776 9.05506V9.14104H65.0376V9.00346C65.0376 8.51049 64.9401 8.0691 64.7452 7.67931C64.5503 7.27805 64.258 6.96277 63.8682 6.73348C63.4784 6.50419 62.9797 6.38954 62.372 6.38954C61.4549 6.38954 60.7383 6.67042 60.2224 7.23219C59.7065 7.78249 59.4486 8.55061 59.4486 9.53657V12.4256C59.4486 13.4001 59.7065 14.174 60.2224 14.7472C60.7383 15.309 61.4606 15.5899 62.3892 15.5899C63.3064 15.5899 63.9771 15.3376 64.4013 14.8332C64.8255 14.3288 65.0376 13.6753 65.0376 12.8728V12.6492H61.8045V11.0499H66.8776V17H65.1579V15.779H64.8828C64.7796 15.9969 64.6248 16.2204 64.4185 16.4497C64.2236 16.679 63.937 16.8682 63.5586 17.0172C63.1918 17.1662 62.6988 17.2408 62.0797 17.2408ZM69.2703 17V4.9622H74.3261C75.0713 4.9622 75.7248 5.09405 76.2866 5.35773C76.8598 5.60995 77.3012 5.97682 77.6107 6.45833C77.9317 6.93984 78.0923 7.51307 78.0923 8.17802V8.36718C78.0923 9.12384 77.9088 9.73146 77.542 10.19C77.1865 10.6372 76.7509 10.9524 76.235 11.1359V11.411C76.6706 11.434 77.0203 11.583 77.284 11.8581C77.5477 12.1218 77.6795 12.5059 77.6795 13.0103V17H75.8051V13.2683C75.8051 12.9587 75.7248 12.7123 75.5643 12.5288C75.4038 12.3454 75.1459 12.2537 74.7905 12.2537H71.1275V17H69.2703ZM71.1275 10.5684H74.1198C74.7847 10.5684 75.3006 10.4021 75.6675 10.0697C76.0344 9.72573 76.2178 9.26142 76.2178 8.67672V8.53915C76.2178 7.95446 76.0344 7.49587 75.6675 7.1634C75.3121 6.81946 74.7962 6.6475 74.1198 6.6475H71.1275V10.5684ZM84.6414 17.2408C83.6899 17.2408 82.8702 17.0688 82.1823 16.7249C81.5059 16.3809 80.9785 15.8879 80.6002 15.2459C80.2333 14.5924 80.0499 13.8014 80.0499 12.8728V4.9622H81.9243V12.9243C81.9243 13.7727 82.1594 14.4262 82.6294 14.8848C83.0994 15.3434 83.7701 15.5727 84.6414 15.5727C85.5127 15.5727 86.1834 15.3434 86.6535 14.8848C87.1235 14.4262 87.3585 13.7727 87.3585 12.9243V4.9622H89.2158V12.8728C89.2158 13.8014 89.0324 14.5924 88.6655 15.2459C88.2986 15.8879 87.7713 16.3809 87.0834 16.7249C86.3955 17.0688 85.5815 17.2408 84.6414 17.2408Z" fill="#17191F"/>
<defs>
<linearGradient id="paint0_linear_210_15365" x1="-4.72626e-07" y1="10.7326" x2="35.7599" y2="10.3984" gradientUnits="userSpaceOnUse">
<stop stop-color="#B5C4FF"/>
<stop offset="0.250464" stop-color="#4E74FC"/>
<stop offset="0.501604" stop-color="#7F97EE"/>
<stop offset="0.783157" stop-color="#4E74FC"/>
<stop offset="1" stop-color="#B5C4FF"/>
</linearGradient>
</defs>
</svg>
