<svg width="34" height="22" viewBox="0 0 34 22" fill="none" xmlns="http://www.w3.org/2000/svg">
<g clip-path="url(#clip0_210_15586)">
<path fill-rule="evenodd" clip-rule="evenodd" d="M8.25831 2.50488C5.057 2.63964 3.25645 3.67497 2.70287 4.98058C2.14929 6.28618 2.65613 8.302 4.78309 10.701C6.46207 12.5947 8.97218 14.499 12.0576 16.0786L10.822 18.2432C7.55439 16.5565 4.82074 14.4953 2.92251 12.3543C0.638047 9.7777 -0.733629 6.71132 0.412832 4.00743C1.55929 1.30354 4.71547 0.161253 8.15378 0.0165195C11.6958 -0.132579 16.0418 0.728178 20.389 2.57549C23.392 3.85158 26.0562 5.45429 28.1925 7.19839L26.6985 9.19267C24.7617 7.59733 22.2804 6.0849 19.4169 4.86805C15.3324 3.13237 11.3559 2.3745 8.25831 2.50488ZM29.5203 12.0527C31.0935 14.1034 31.4383 15.8231 30.9466 16.9827C30.3931 18.2882 28.5925 19.3236 25.3912 19.4583C23.1598 19.5523 20.4722 19.1852 17.6168 18.3238L16.6311 20.6263C19.8095 21.6138 22.873 22.0571 25.4957 21.9467C28.9341 21.802 32.0902 20.6597 33.2367 17.9558C34.2295 15.6144 33.334 13.0012 31.5927 10.6695L29.5203 12.0527Z" fill="#6170FF"/>
<path fill-rule="evenodd" clip-rule="evenodd" d="M24.0488 0.0103397V2.50231C24.5119 2.4858 24.9601 2.48674 25.3912 2.50488C28.5925 2.63964 30.3931 3.67497 30.9466 4.98058C31.5002 6.28618 30.9934 8.302 28.8664 10.701C26.8083 13.0223 23.5014 15.3595 19.4169 17.0951C15.3324 18.8308 11.3559 19.5887 8.25831 19.4583C5.057 19.3236 3.25645 18.2882 2.70287 16.9827C2.14929 15.6771 2.65613 13.6612 4.78309 11.2622C6.84117 8.94095 10.1481 6.60377 14.2326 4.86805C15.1975 4.45802 16.1564 4.10257 17.0991 3.8005L16.4439 1.39564C15.3907 1.72947 14.3257 2.12287 13.2605 2.57549C8.91335 4.42282 5.27589 6.9546 2.92251 9.60892C0.638047 12.1855 -0.733629 15.2519 0.412832 17.9558C1.55929 20.6597 4.71547 21.802 8.15378 21.9467C11.6958 22.0958 16.0418 21.235 20.389 19.3877C24.7362 17.5404 28.3736 15.0086 30.727 12.3543C33.0115 9.7777 34.3832 6.71132 33.2367 4.00743C32.0902 1.30354 28.9341 0.161252 25.4957 0.0165196C25.0269 -0.00321641 24.5439 -0.00525836 24.0488 0.0103397Z" fill="#6170FF"/>
<path d="M19.2114 9.19983L13.934 14.2532" stroke="#6170FF" stroke-width="1.45455"/>
<path d="M14.2358 9.19983L19.5132 14.2532" stroke="#6170FF" stroke-width="1.45455"/>
<path d="M12.1626 11.5819H21.2845" stroke="#6170FF" stroke-width="1.45455"/>
<path d="M16.7236 7.61169V12.3761" stroke="#6170FF" stroke-width="1.45455"/>
</g>
<defs>
<clipPath id="clip0_210_15586">
<rect width="34" height="22" fill="white"/>
</clipPath>
</defs>
</svg>
